<svg width="152" height="82" viewBox="0 0 152 82" fill="none" xmlns="http://www.w3.org/2000/svg">
<g clip-path="url(#clip0_477_317)">
<path fill-rule="evenodd" clip-rule="evenodd" d="M41.0822 40.4248C43.6423 39.0476 44.5194 35.9973 43.0414 33.6118C41.5633 31.2263 38.2899 30.409 35.7298 31.7862C33.1698 33.1635 32.2927 36.2137 33.7707 38.5993C35.2488 40.9847 38.5222 41.802 41.0822 40.4248Z" fill="#A358DF"/>
<path d="M39.0176 50.5725L36.2539 59.7861L61.6798 66.4084L64.4435 57.1947L39.0176 50.5725Z" fill="#FDAB3D"/>
<path d="M86.043 19.0544L88.6758 25.375L106.118 19.0666L103.485 12.746L86.043 19.0544Z" fill="#DFF0FF"/>
<path d="M140.116 50.0232L139.473 54.0693L150.638 55.6105L151.281 51.5644L140.116 50.0232Z" fill="#F9DADE"/>
<path fill-rule="evenodd" clip-rule="evenodd" d="M9.62725 33.9231C11.4558 33.9231 12.9381 32.5419 12.9381 30.8381C12.9381 29.1343 11.4558 27.7529 9.62725 27.7529C7.79872 27.7529 6.31641 29.1343 6.31641 30.8381C6.31641 32.5419 7.79872 33.9231 9.62725 33.9231Z" fill="#F65F7C"/>
<path fill-rule="evenodd" clip-rule="evenodd" d="M139.721 33.3538C141.549 33.3538 143.031 31.9726 143.031 30.2687C143.031 28.5648 141.549 27.1836 139.721 27.1836C137.892 27.1836 136.41 28.5648 136.41 30.2687C136.41 31.9726 137.892 33.3538 139.721 33.3538Z" fill="#E6E9EF"/>
<path fill-rule="evenodd" clip-rule="evenodd" d="M88.6113 44.8845C89.9651 44.8845 91.0625 43.862 91.0625 42.6005C91.0625 41.3391 89.9651 40.3164 88.6113 40.3164C87.2576 40.3164 86.1602 41.3391 86.1602 42.6005C86.1602 43.862 87.2576 44.8845 88.6113 44.8845Z" fill="#FAA1F1"/>
<mask id="mask0_477_317" style="mask-type:alpha" maskUnits="userSpaceOnUse" x="0" y="53" width="46" height="29">
<path d="M45.4831 53.4385H0V82.0003H45.4831V53.4385Z" fill="#C4C4C4"/>
</mask>
<g mask="url(#mask0_477_317)">
<path fill-rule="evenodd" clip-rule="evenodd" d="M20.378 99.2331C30.4578 99.2331 38.6291 91.6189 38.6291 82.2264C38.6291 72.8339 30.4578 65.2197 20.378 65.2197C10.2983 65.2197 2.12695 72.8339 2.12695 82.2264C2.12695 91.6189 10.2983 99.2331 20.378 99.2331Z" fill="#FF5AC4"/>
</g>
<mask id="mask1_477_317" style="mask-type:alpha" maskUnits="userSpaceOnUse" x="1" y="0" width="54" height="30">
<path d="M54.383 0H1.97852V29.4831H54.383V0Z" fill="#C4C4C4"/>
</mask>
<g mask="url(#mask1_477_317)">
<path d="M53.5613 -17.2788L38.207 -26.9102L10.6442 11.2428L25.9984 20.8741L53.5613 -17.2788Z" fill="#00CC6F"/>
</g>
<path fill-rule="evenodd" clip-rule="evenodd" d="M53.6011 17.3628C55.3116 17.3628 56.6982 16.0707 56.6982 14.4768C56.6982 12.883 55.3116 11.5908 53.6011 11.5908C51.8906 11.5908 50.5039 12.883 50.5039 14.4768C50.5039 16.0707 51.8906 17.3628 53.6011 17.3628Z" fill="#9CD326"/>
<path fill-rule="evenodd" clip-rule="evenodd" d="M99.0619 70.6421C100.772 70.6421 102.159 69.35 102.159 67.7561C102.159 66.1623 100.772 64.8701 99.0619 64.8701C97.3514 64.8701 95.9648 66.1623 95.9648 67.7561C95.9648 69.35 97.3514 70.6421 99.0619 70.6421Z" fill="#66CCFF"/>
</g>
<defs>
<clipPath id="clip0_477_317">
<rect width="152" height="82" fill="white"/>
</clipPath>
</defs>
</svg>
