<svg width="163" height="43" viewBox="0 0 163 43" fill="none" xmlns="http://www.w3.org/2000/svg">
<g clip-path="url(#clip0_115_2141)">
<path d="M34.2915 9.24119C34.8195 6.60647 33.1075 4.04344 30.4678 3.51649C27.8281 2.98955 25.2602 4.69823 24.7323 7.33294C24.2044 9.96766 25.9163 12.5307 28.556 13.0576C31.1957 13.5846 33.7636 11.8759 34.2915 9.24119Z" fill="url(#paint0_linear_115_2141)"/>
<path d="M17.4395 10.9155L16.3199 11.6786C16.2332 11.7377 16.1591 11.8133 16.1018 11.901C16.0445 11.9888 16.0051 12.0871 15.986 12.1901C15.9669 12.2931 15.9683 12.3989 15.9903 12.5013C16.0123 12.6038 16.0544 12.7009 16.1141 12.787L22.1826 21.5374C22.3056 21.7139 22.4718 21.8561 22.6654 21.9506C22.859 22.045 23.0735 22.0885 23.2887 22.0769L35.955 21.3703C36.4067 21.3446 36.8467 21.2175 37.2424 20.9985C37.638 20.7794 37.979 20.474 38.2399 20.1051C38.5008 19.7362 38.6749 19.3132 38.7492 18.8678C38.8236 18.4223 38.7962 17.9659 38.6692 17.5324C38.474 16.8748 38.0588 16.3037 37.4929 15.9147C36.9269 15.5256 36.2443 15.342 35.5591 15.3945L24.639 16.2321L23.11 12.5952C22.8918 12.0736 22.56 11.607 22.1388 11.2292C21.7175 10.8515 21.2173 10.5721 20.6744 10.4113C20.1315 10.2505 19.5595 10.2123 19 10.2995C18.4405 10.3867 17.9075 10.5972 17.4395 10.9155Z" fill="url(#paint1_linear_115_2141)"/>
<path d="M35.59 39.5629C36.5433 37.0501 35.2752 34.2418 32.7577 33.2903C30.2402 32.3388 27.4265 33.6044 26.4732 36.1172C25.5199 38.63 26.7879 41.4383 29.3055 42.3898C31.823 43.3413 34.6367 42.0757 35.59 39.5629Z" fill="url(#paint2_linear_115_2141)"/>
<path d="M35.2547 26.2505L35.2072 24.8959C35.2037 24.7913 35.1794 24.6883 35.1358 24.5931C35.0922 24.4978 35.0302 24.4121 34.9532 24.3409C34.8762 24.2698 34.7859 24.2145 34.6874 24.1784C34.5889 24.1423 34.4842 24.1261 34.3793 24.1306L23.7261 24.5821C23.511 24.5911 23.3018 24.655 23.1185 24.7676C22.9351 24.8803 22.7838 25.0379 22.6788 25.2255L16.5085 36.2876C16.288 36.6829 16.16 37.1229 16.1343 37.5746C16.1085 38.0263 16.1855 38.478 16.3596 38.8958C16.5338 39.3135 16.8004 39.6865 17.1396 39.9866C17.4788 40.2868 17.8817 40.5064 18.318 40.6289C18.9791 40.8156 19.6844 40.7705 20.3163 40.501C20.9481 40.2315 21.4682 39.7539 21.7899 39.1479L26.9153 29.4878L30.8102 30.1425C31.3684 30.236 31.9404 30.2043 32.4848 30.0498C33.0292 29.8953 33.5324 29.6219 33.9579 29.2493C34.3833 28.8768 34.7204 28.4144 34.9447 27.8957C35.169 27.377 35.2749 26.815 35.2547 26.2505Z" fill="url(#paint3_linear_115_2141)"/>
<path d="M9.66398 25.4825C10.1767 22.8448 8.45004 20.2917 5.80733 19.7799C3.16463 19.2682 0.606643 20.9916 0.0939112 23.6293C-0.418821 26.267 1.30786 28.8201 3.95057 29.3319C6.59327 29.8437 9.15125 28.1202 9.66398 25.4825Z" fill="url(#paint4_linear_115_2141)"/>
<path d="M12.0362 14.5023L13.1671 13.7731C13.2555 13.7168 13.3542 13.6785 13.4575 13.6604C13.5609 13.6423 13.6667 13.6448 13.7691 13.6676C13.8714 13.6905 13.9683 13.7333 14.054 13.7936C14.1397 13.854 14.2126 13.9306 14.2686 14.0192L19.9503 23.0246C20.0645 23.2071 20.1303 23.4156 20.1414 23.6305C20.1525 23.8453 20.1085 24.0595 20.0137 24.2527L14.3885 35.6015C14.1877 36.007 13.8976 36.362 13.5399 36.6397C13.1822 36.9175 12.7661 37.1108 12.3229 37.2053C11.8797 37.2998 11.4208 37.2929 10.9806 37.1852C10.5404 37.0775 10.1303 36.8718 9.78111 36.5835C9.25178 36.1458 8.88874 35.5402 8.7525 34.8678C8.61627 34.1953 8.71507 33.4965 9.03244 32.8879L14.0922 23.1939L11.3418 20.3629C10.9483 19.9568 10.6503 19.4684 10.4693 18.9332C10.2883 18.3979 10.2289 17.8291 10.2954 17.2681C10.3619 16.7071 10.5526 16.1679 10.8536 15.6895C11.1547 15.2111 11.5587 14.8056 12.0362 14.5023Z" fill="url(#paint5_linear_115_2141)"/>
</g>
<path d="M43.4241 26.9668V11.9996L43.1295 9.64261H47.3722L57.3895 20.1314L58.5386 21.7224H58.8627V9.64261H62.7518V26.9668H59.01L48.7569 16.3012L47.6079 14.9165H47.3132V26.9668H43.4241ZM68.1191 26.9668C66.8031 26.9668 65.821 26.7016 65.1728 26.1713C64.5443 25.641 64.23 24.7767 64.23 23.5786V17.5387C64.23 17.244 64.2496 16.8905 64.2889 16.478C64.3479 16.0459 64.4853 15.6236 64.7014 15.2111C64.9371 14.7986 65.3201 14.4549 65.8505 14.1799C66.4004 13.9049 67.1566 13.7674 68.1191 13.7674H76.2509C77.233 13.7674 77.9892 13.9049 78.5195 14.1799C79.0498 14.4549 79.423 14.7986 79.6391 15.2111C79.8748 15.6236 80.0123 16.0459 80.0516 16.478C80.1105 16.8905 80.14 17.244 80.14 17.5387V23.1955C80.14 23.5491 80.1105 23.9419 80.0516 24.3741C80.0123 24.8062 79.8748 25.2187 79.6391 25.6115C79.4034 26.0043 79.0204 26.3284 78.49 26.5838C77.9597 26.8391 77.2133 26.9668 76.2509 26.9668H68.1191ZM69.2387 24.433H75.1313C76.0937 24.433 76.575 24.0401 76.575 23.2545V17.4797C76.575 16.6941 76.0937 16.3012 75.1313 16.3012H69.2387C68.2959 16.3012 67.8245 16.6941 67.8245 17.4797V23.2545C67.8245 24.0401 68.2959 24.433 69.2387 24.433ZM85.6097 26.9668L79.5404 13.7674H83.6652L87.0534 21.8992L87.8194 24.0205H88.1141L88.8801 21.8992L92.3273 13.7674H96.3342L95.8628 15.5647L90.3238 26.9668H85.6097ZM99.2602 26.9668C97.7675 26.9668 96.6871 26.6231 96.0193 25.9356C95.3515 25.2285 95.0176 24.266 95.0176 23.0482C95.0176 21.7715 95.3613 20.7894 96.0488 20.1019C96.7559 19.4145 97.8264 19.0707 99.2602 19.0707H100.763C102.236 19.0707 103.562 19.11 104.74 19.1886C105.919 19.2672 106.891 19.3457 107.657 19.4243V17.4797C107.657 17.303 107.638 17.1262 107.598 16.9494C107.559 16.753 107.441 16.5959 107.245 16.478C107.048 16.3602 106.714 16.3012 106.243 16.3012H104.77C102.629 16.3012 100.841 16.3405 99.4076 16.4191C97.9737 16.478 97.0014 16.5369 96.4907 16.5959L96.1666 14.3567C96.1666 14.0817 96.913 13.9147 98.4058 13.8558C99.8986 13.7969 102.393 13.7674 105.889 13.7674H107.363C108.345 13.7674 109.101 13.9049 109.631 14.1799C110.162 14.4549 110.535 14.7986 110.751 15.2111C110.986 15.6236 111.124 16.0459 111.163 16.478C111.222 16.8905 111.252 17.244 111.252 17.5387V26.9668H108.836L107.687 26.3775C106.862 26.515 105.87 26.6525 104.711 26.79C103.552 26.9079 102.226 26.9668 100.733 26.9668H99.2602ZM100.026 24.433H106.773C107.205 24.433 107.461 24.3937 107.539 24.3151C107.618 24.2366 107.657 23.991 107.657 23.5786V21.3099H100.026C99.4959 21.3099 99.1227 21.4376 98.9067 21.6929C98.7103 21.9483 98.6121 22.3509 98.6121 22.9009C98.6121 23.4509 98.7299 23.8437 98.9656 24.0794C99.2013 24.3151 99.5549 24.433 100.026 24.433ZM117 26.9668V9.64261H120.889V16.8316H132.438V9.64261H136.327V26.9668H132.438V19.66H120.889V26.9668H117ZM157.523 27.2614C156.737 27.2614 155.962 27.1436 155.196 26.9079C154.449 26.6525 153.595 26.0436 152.632 25.0812L150.511 22.9598C149.647 22.076 148.694 21.4278 147.653 21.0153C146.632 20.6028 145.345 20.3966 143.793 20.3966H142.88V26.9668H138.991V11.9996L138.696 9.61315H151.748C153.005 9.61315 153.988 9.7801 154.695 10.114C155.421 10.4479 155.952 10.8899 156.286 11.4398C156.639 11.9702 156.865 12.5398 156.963 13.1487C157.062 13.7576 157.111 14.337 157.111 14.887V15.4468C157.111 15.8789 157.052 16.3602 156.934 16.8905C156.816 17.4208 156.59 17.9413 156.256 18.452C155.922 18.9627 155.441 19.3948 154.813 19.7484C154.204 20.1019 153.398 20.3082 152.397 20.3671C152.652 20.5046 152.976 20.7207 153.369 21.0153C153.762 21.2903 154.164 21.5947 154.577 21.9286C155.009 22.2626 155.402 22.567 155.755 22.842C156.109 23.117 156.384 23.3134 156.58 23.4312C157.287 23.8437 157.916 24.1285 158.466 24.2857C159.016 24.4428 159.468 24.5312 159.821 24.5508C160.175 24.5705 160.381 24.5803 160.44 24.5803L159.851 26.9668C159.674 27.0257 159.379 27.0846 158.967 27.1436C158.554 27.2221 158.073 27.2614 157.523 27.2614ZM147.3 17.7154C148.046 17.7154 148.714 17.7056 149.303 17.686C149.892 17.6467 150.423 17.6074 150.894 17.5681C151.758 17.4699 152.357 17.2342 152.691 16.861C153.045 16.4682 153.222 15.9673 153.222 15.3584V14.6808C153.222 14.0522 153.055 13.5219 152.721 13.0898C152.387 12.6576 151.788 12.4416 150.923 12.4416H142.88V17.5681C143.744 17.6271 144.54 17.6663 145.267 17.686C145.993 17.7056 146.671 17.7154 147.3 17.7154Z" fill="url(#paint6_linear_115_2141)"/>
<path d="M43.4587 37.9746V31.1964C43.6453 31.1591 43.8413 31.1249 44.0465 31.0938C44.2518 31.0627 44.4664 31.0394 44.6903 31.0238C44.9173 31.0052 45.1521 30.9958 45.3947 30.9958C46.3308 30.9958 47.029 31.1653 47.4893 31.5043C47.9527 31.8433 48.1843 32.3735 48.1843 33.0951C48.1843 33.5616 48.0724 33.9534 47.8485 34.2706C47.6277 34.5847 47.3042 34.8227 46.8782 34.9844C46.4552 35.143 45.9358 35.2223 45.3201 35.2223C45.1459 35.2223 44.9904 35.2192 44.8536 35.213C44.7167 35.2036 44.5768 35.1943 44.4337 35.185V37.9746H43.4587ZM47.6199 37.9746L45.2501 34.7465H46.337L48.7301 37.9746H47.6199ZM45.3341 34.4526C45.9996 34.4526 46.4847 34.3437 46.7895 34.126C47.0943 33.9052 47.2467 33.5631 47.2467 33.0997C47.2467 32.7825 47.1845 32.5259 47.0601 32.33C46.9357 32.131 46.7429 31.9864 46.4816 31.8962C46.2235 31.8029 45.8892 31.7562 45.4787 31.7562C45.2672 31.7562 45.079 31.764 44.9142 31.7795C44.7525 31.7951 44.5923 31.8169 44.4337 31.8449V34.4106C44.5426 34.4199 44.6421 34.4292 44.7323 34.4386C44.8256 34.4448 44.9189 34.4495 45.0122 34.4526C45.1086 34.4526 45.2159 34.4526 45.3341 34.4526ZM49.097 37.9746V32.4233H53.0016V33.1697H50.0627V37.2282H53.0389V37.9746H49.097ZM49.6941 35.5115V34.7651H52.6051V35.5115H49.6941ZM55.1807 38.0259C54.9412 38.0259 54.6909 38.0181 54.4296 38.0026C54.1715 37.9902 53.9149 37.9699 53.6599 37.942V32.5306C53.831 32.4964 54.0113 32.4668 54.2011 32.442C54.3939 32.4171 54.5882 32.3984 54.7842 32.386C54.9832 32.3704 55.1745 32.3627 55.358 32.3627C56.3874 32.3627 57.1633 32.5944 57.6858 33.0577C58.2083 33.518 58.4695 34.2333 58.4695 35.2036C58.4695 35.8598 58.3466 36.3963 58.101 36.813C57.8553 37.2267 57.4883 37.533 57 37.732C56.5149 37.928 55.9084 38.0259 55.1807 38.0259ZM55.4093 37.2469C55.8664 37.2469 56.2474 37.1785 56.5522 37.0416C56.857 36.9017 57.0856 36.6824 57.2379 36.3839C57.3903 36.0822 57.4665 35.6872 57.4665 35.199C57.4665 34.7138 57.3903 34.3204 57.2379 34.0187C57.0887 33.7139 56.8632 33.4916 56.5615 33.3516C56.2599 33.2086 55.8835 33.137 55.4326 33.137C55.302 33.137 55.1651 33.1433 55.0221 33.1557C54.8821 33.1681 54.7562 33.1852 54.6442 33.207V37.2096C54.7686 37.2251 54.893 37.236 55.0174 37.2422C55.1449 37.2453 55.2755 37.2469 55.4093 37.2469ZM59.1613 37.9746V32.4233H63.0659V33.1697H60.1269V37.2282H63.1032V37.9746H59.1613ZM59.7584 35.5115V34.7651H62.6693V35.5115H59.7584ZM63.7242 37.9746V32.4233H67.6055V33.1884H64.7085V37.9746H63.7242ZM64.3726 35.6188V34.8538H67.2089V35.6188H64.3726ZM68.1049 37.9746V32.4233H69.0892V37.9746H68.1049ZM70.1167 37.9746V32.4233H71.0963L74.1845 36.813H74.0072V32.4233H74.9262V37.9746H73.9419L70.8584 33.5849H71.031V37.9746H70.1167ZM75.9551 37.9746V32.4233H76.9395V37.9746H75.9551ZM77.9669 37.9746V32.4233H78.9466L82.0348 36.813H81.8575V32.4233H82.7765V37.9746H81.7922L78.7086 33.5849H78.8812V37.9746H77.9669ZM86.693 38.0306C85.9808 38.0306 85.3868 37.9295 84.911 37.7274C84.4352 37.5252 84.076 37.2173 83.8334 36.8037C83.5939 36.387 83.4742 35.8552 83.4742 35.2083C83.4742 34.5614 83.597 34.0281 83.8427 33.6082C84.0915 33.1852 84.4492 32.8711 84.9157 32.6659C85.3822 32.4575 85.9451 32.3533 86.6044 32.3533C86.8376 32.3533 87.0662 32.3658 87.2901 32.3907C87.5172 32.4155 87.7302 32.4529 87.9292 32.5026V33.3003C87.7146 33.2443 87.5047 33.2039 87.2995 33.179C87.0942 33.1542 86.8874 33.1417 86.679 33.1417C86.2063 33.1417 85.8082 33.2117 85.4848 33.3516C85.1614 33.4885 84.9157 33.7093 84.7477 34.0141C84.5829 34.3157 84.5005 34.7169 84.5005 35.2176C84.5005 35.6934 84.5782 36.0806 84.7337 36.3792C84.8923 36.6778 85.1271 36.8986 85.4381 37.0416C85.7522 37.1816 86.1425 37.2515 86.609 37.2515C86.7708 37.2515 86.9356 37.2453 87.1035 37.2329C87.2746 37.2173 87.4285 37.1971 87.5654 37.1722L87.1595 37.5314V35.2783H88.0785V37.914C87.839 37.9513 87.6027 37.9793 87.3694 37.9979C87.1362 38.0197 86.9107 38.0306 86.693 38.0306ZM90.8263 37.9746V31.0705H91.8153V33.9954H95.216V31.0705H96.2097V37.9746H95.216V34.8771H91.8153V37.9746H90.8263ZM99.5391 38.0446C99.001 38.0446 98.5594 37.9606 98.2142 37.7927C97.869 37.6247 97.6124 37.3728 97.4445 37.037C97.2797 36.7011 97.1973 36.2766 97.1973 35.7634V32.4233H98.1816V35.8521C98.1816 36.3372 98.292 36.6933 98.5128 36.9203C98.7336 37.1442 99.0757 37.2562 99.5391 37.2562C100.009 37.2562 100.352 37.1442 100.57 36.9203C100.791 36.6933 100.901 36.3372 100.901 35.8521V32.4233H101.862V35.7634C101.862 36.2766 101.78 36.7011 101.615 37.037C101.453 37.3728 101.2 37.6247 100.855 37.7927C100.512 37.9606 100.074 38.0446 99.5391 38.0446ZM102.878 37.9746V32.4233H104.048L105.98 36.3932H105.83L107.729 32.4233H108.9V37.9746H107.99V33.2537H108.2L106.297 37.1862H105.481L103.531 33.2583H103.787V37.9746H102.878ZM109.32 37.9746L111.322 32.4233H112.745L114.75 37.9746H113.771L111.966 32.8292H112.087L110.286 37.9746H109.32ZM110.538 36.3559L110.753 35.6048H113.309L113.524 36.3559H110.538ZM115.155 37.9746V32.4233H116.135L119.223 36.813H119.046V32.4233H119.965V37.9746H118.981L115.897 33.5849H116.07V37.9746H115.155ZM122.814 37.9746V31.1964C123.001 31.1591 123.197 31.1249 123.402 31.0938C123.607 31.0627 123.822 31.0394 124.046 31.0238C124.273 31.0052 124.507 30.9958 124.75 30.9958C125.686 30.9958 126.384 31.1653 126.845 31.5043C127.308 31.8433 127.54 32.3735 127.54 33.0951C127.54 33.5616 127.428 33.9534 127.204 34.2706C126.983 34.5847 126.66 34.8227 126.234 34.9844C125.811 35.143 125.291 35.2223 124.675 35.2223C124.501 35.2223 124.346 35.2192 124.209 35.213C124.072 35.2036 123.932 35.1943 123.789 35.185V37.9746H122.814ZM126.975 37.9746L124.605 34.7465H125.692L128.085 37.9746H126.975ZM124.689 34.4526C125.355 34.4526 125.84 34.3437 126.145 34.126C126.45 33.9052 126.602 33.5631 126.602 33.0997C126.602 32.7825 126.54 32.5259 126.415 32.33C126.291 32.131 126.098 31.9864 125.837 31.8962C125.579 31.8029 125.245 31.7562 124.834 31.7562C124.623 31.7562 124.434 31.764 124.27 31.7795C124.108 31.7951 123.948 31.8169 123.789 31.8449V34.4106C123.898 34.4199 123.997 34.4292 124.088 34.4386C124.181 34.4448 124.274 34.4495 124.368 34.4526C124.464 34.4526 124.571 34.4526 124.689 34.4526ZM128.452 37.9746V32.4233H132.357V33.1697H129.418V37.2282H132.394V37.9746H128.452ZM129.049 35.5115V34.7651H131.96V35.5115H129.049ZM134.261 38.0446C134 38.0446 133.734 38.0244 133.463 37.9839C133.193 37.9466 132.942 37.8938 132.712 37.8253V37.037C132.886 37.0898 133.063 37.1334 133.244 37.1676C133.424 37.2018 133.6 37.2282 133.771 37.2469C133.945 37.2655 134.108 37.2749 134.261 37.2749C134.566 37.2749 134.813 37.2422 135.003 37.1769C135.192 37.1116 135.329 37.0183 135.413 36.897C135.5 36.7757 135.544 36.628 135.544 36.4538C135.544 36.3077 135.514 36.1833 135.455 36.0806C135.396 35.978 135.292 35.8894 135.142 35.8147C134.996 35.7401 134.791 35.6717 134.527 35.6095L134.196 35.5395C133.636 35.4182 133.228 35.2316 132.973 34.9797C132.718 34.7278 132.591 34.3935 132.591 33.9767C132.591 33.6564 132.672 33.375 132.833 33.1324C132.998 32.8867 133.252 32.6954 133.594 32.5586C133.936 32.4218 134.373 32.3533 134.905 32.3533C135.135 32.3533 135.365 32.3673 135.595 32.3953C135.825 32.4202 136.033 32.4575 136.22 32.5073V33.291C136.012 33.235 135.799 33.193 135.581 33.165C135.363 33.137 135.144 33.1231 134.923 33.1231C134.587 33.1231 134.32 33.1557 134.121 33.221C133.922 33.2863 133.777 33.3796 133.687 33.5009C133.6 33.6191 133.556 33.7606 133.556 33.9254C133.556 34.1462 133.623 34.3188 133.757 34.4432C133.891 34.5645 134.147 34.6703 134.527 34.7605L134.858 34.8304C135.247 34.9144 135.561 35.0248 135.8 35.1616C136.043 35.2985 136.22 35.468 136.332 35.6701C136.447 35.8723 136.505 36.1148 136.505 36.3979C136.505 36.7306 136.421 37.0198 136.253 37.2655C136.085 37.5112 135.834 37.7025 135.502 37.8393C135.169 37.9762 134.755 38.0446 134.261 38.0446ZM139.39 38.0446C138.865 38.0446 138.406 37.9435 138.014 37.7414C137.622 37.5392 137.317 37.2282 137.1 36.8084C136.882 36.3885 136.773 35.8536 136.773 35.2036C136.773 34.5505 136.882 34.0141 137.1 33.5942C137.317 33.1713 137.622 32.8587 138.014 32.6566C138.409 32.4544 138.868 32.3533 139.39 32.3533C139.919 32.3533 140.379 32.4544 140.771 32.6566C141.166 32.8587 141.471 33.1713 141.685 33.5942C141.903 34.0141 142.012 34.5505 142.012 35.2036C142.012 35.8536 141.903 36.3885 141.685 36.8084C141.468 37.2282 141.161 37.5392 140.766 37.7414C140.375 37.9435 139.916 38.0446 139.39 38.0446ZM139.39 37.2702C139.723 37.2702 140.011 37.2033 140.253 37.0696C140.496 36.9328 140.682 36.7151 140.813 36.4165C140.944 36.1148 141.009 35.7168 141.009 35.2223C141.009 34.7122 140.942 34.3033 140.808 33.9954C140.678 33.6875 140.491 33.4667 140.249 33.333C140.006 33.1961 139.72 33.1277 139.39 33.1277C139.064 33.1277 138.779 33.1946 138.537 33.3283C138.297 33.462 138.112 33.6797 137.981 33.9814C137.851 34.2831 137.785 34.6811 137.785 35.1756C137.785 35.6888 137.849 36.0993 137.977 36.4072C138.107 36.712 138.292 36.9328 138.532 37.0696C138.774 37.2033 139.061 37.2702 139.39 37.2702ZM145.015 38.0446C144.477 38.0446 144.036 37.9606 143.69 37.7927C143.345 37.6247 143.089 37.3728 142.921 37.037C142.756 36.7011 142.673 36.2766 142.673 35.7634V32.4233H143.658V35.8521C143.658 36.3372 143.768 36.6933 143.989 36.9203C144.21 37.1442 144.552 37.2562 145.015 37.2562C145.485 37.2562 145.828 37.1442 146.046 36.9203C146.267 36.6933 146.377 36.3372 146.377 35.8521V32.4233H147.338V35.7634C147.338 36.2766 147.256 36.7011 147.091 37.037C146.929 37.3728 146.676 37.6247 146.331 37.7927C145.989 37.9606 145.55 38.0446 145.015 38.0446ZM148.335 37.9746V32.5306C148.581 32.484 148.848 32.4435 149.137 32.4093C149.43 32.3751 149.733 32.358 150.047 32.358C150.862 32.358 151.471 32.4995 151.876 32.7825C152.28 33.0624 152.482 33.4962 152.482 34.084C152.482 34.4666 152.386 34.7869 152.193 35.045C152 35.3 151.719 35.4929 151.348 35.6235C150.982 35.7541 150.538 35.8194 150.019 35.8194C149.895 35.8194 149.773 35.8178 149.655 35.8147C149.537 35.8085 149.42 35.8007 149.305 35.7914V37.9746H148.335ZM151.852 37.9746L149.888 35.3902H150.957L152.953 37.9746H151.852ZM150.024 35.115C150.559 35.115 150.947 35.031 151.19 34.8631C151.432 34.6951 151.554 34.437 151.554 34.0887C151.554 33.7248 151.44 33.4636 151.213 33.305C150.986 33.1433 150.624 33.0624 150.126 33.0624C149.968 33.0624 149.823 33.0686 149.692 33.0811C149.562 33.0904 149.433 33.1059 149.305 33.1277V35.087C149.442 35.0963 149.56 35.1041 149.66 35.1103C149.759 35.1134 149.881 35.115 150.024 35.115ZM155.75 38.0446C155.15 38.0446 154.635 37.9497 154.206 37.76C153.777 37.5703 153.446 37.2671 153.213 36.8504C152.982 36.4336 152.867 35.8863 152.867 35.2083C152.867 34.5614 152.982 34.0265 153.213 33.6035C153.446 33.1806 153.782 32.8665 154.22 32.6612C154.662 32.456 155.194 32.3533 155.816 32.3533C156.036 32.3533 156.253 32.3658 156.464 32.3907C156.679 32.4124 156.884 32.4482 157.08 32.4979V33.2957C156.884 33.2459 156.686 33.2101 156.487 33.1884C156.291 33.1635 156.089 33.151 155.881 33.151C155.445 33.151 155.08 33.2195 154.785 33.3563C154.492 33.49 154.271 33.7077 154.122 34.0094C153.976 34.308 153.903 34.7045 153.903 35.199C153.903 35.709 153.976 36.1133 154.122 36.4118C154.271 36.7104 154.489 36.925 154.775 37.0556C155.064 37.1831 155.417 37.2469 155.834 37.2469C156.046 37.2469 156.253 37.2313 156.455 37.2002C156.657 37.1691 156.865 37.1209 157.08 37.0556V37.8533C156.89 37.9124 156.68 37.9591 156.45 37.9933C156.223 38.0275 155.99 38.0446 155.75 38.0446ZM157.561 37.9746V32.4233H161.466V33.1697H158.527V37.2282H161.503V37.9746H157.561ZM158.158 35.5115V34.7651H161.069V35.5115H158.158Z" fill="#9C9C9C"/>
<path d="M43.4587 37.9746V31.1964C43.6453 31.1591 43.8413 31.1249 44.0465 31.0938C44.2518 31.0627 44.4664 31.0394 44.6903 31.0238C44.9173 31.0052 45.1521 30.9958 45.3947 30.9958C46.3308 30.9958 47.029 31.1653 47.4893 31.5043C47.9527 31.8433 48.1843 32.3735 48.1843 33.0951C48.1843 33.5616 48.0724 33.9534 47.8485 34.2706C47.6277 34.5847 47.3042 34.8227 46.8782 34.9844C46.4552 35.143 45.9358 35.2223 45.3201 35.2223C45.1459 35.2223 44.9904 35.2192 44.8536 35.213C44.7167 35.2036 44.5768 35.1943 44.4337 35.185V37.9746H43.4587ZM47.6199 37.9746L45.2501 34.7465H46.337L48.7301 37.9746H47.6199ZM45.3341 34.4526C45.9996 34.4526 46.4847 34.3437 46.7895 34.126C47.0943 33.9052 47.2467 33.5631 47.2467 33.0997C47.2467 32.7825 47.1845 32.5259 47.0601 32.33C46.9357 32.131 46.7429 31.9864 46.4816 31.8962C46.2235 31.8029 45.8892 31.7562 45.4787 31.7562C45.2672 31.7562 45.079 31.764 44.9142 31.7795C44.7525 31.7951 44.5923 31.8169 44.4337 31.8449V34.4106C44.5426 34.4199 44.6421 34.4292 44.7323 34.4386C44.8256 34.4448 44.9189 34.4495 45.0122 34.4526C45.1086 34.4526 45.2159 34.4526 45.3341 34.4526ZM49.097 37.9746V32.4233H53.0016V33.1697H50.0627V37.2282H53.0389V37.9746H49.097ZM49.6941 35.5115V34.7651H52.6051V35.5115H49.6941ZM55.1807 38.0259C54.9412 38.0259 54.6909 38.0181 54.4296 38.0026C54.1715 37.9902 53.9149 37.9699 53.6599 37.942V32.5306C53.831 32.4964 54.0113 32.4668 54.2011 32.442C54.3939 32.4171 54.5882 32.3984 54.7842 32.386C54.9832 32.3704 55.1745 32.3627 55.358 32.3627C56.3874 32.3627 57.1633 32.5944 57.6858 33.0577C58.2083 33.518 58.4695 34.2333 58.4695 35.2036C58.4695 35.8598 58.3466 36.3963 58.101 36.813C57.8553 37.2267 57.4883 37.533 57 37.732C56.5149 37.928 55.9084 38.0259 55.1807 38.0259ZM55.4093 37.2469C55.8664 37.2469 56.2474 37.1785 56.5522 37.0416C56.857 36.9017 57.0856 36.6824 57.2379 36.3839C57.3903 36.0822 57.4665 35.6872 57.4665 35.199C57.4665 34.7138 57.3903 34.3204 57.2379 34.0187C57.0887 33.7139 56.8632 33.4916 56.5615 33.3516C56.2599 33.2086 55.8835 33.137 55.4326 33.137C55.302 33.137 55.1651 33.1433 55.0221 33.1557C54.8821 33.1681 54.7562 33.1852 54.6442 33.207V37.2096C54.7686 37.2251 54.893 37.236 55.0174 37.2422C55.1449 37.2453 55.2755 37.2469 55.4093 37.2469ZM59.1613 37.9746V32.4233H63.0659V33.1697H60.1269V37.2282H63.1032V37.9746H59.1613ZM59.7584 35.5115V34.7651H62.6693V35.5115H59.7584ZM63.7242 37.9746V32.4233H67.6055V33.1884H64.7085V37.9746H63.7242ZM64.3726 35.6188V34.8538H67.2089V35.6188H64.3726ZM68.1049 37.9746V32.4233H69.0892V37.9746H68.1049ZM70.1167 37.9746V32.4233H71.0963L74.1845 36.813H74.0072V32.4233H74.9262V37.9746H73.9419L70.8584 33.5849H71.031V37.9746H70.1167ZM75.9551 37.9746V32.4233H76.9395V37.9746H75.9551ZM77.9669 37.9746V32.4233H78.9466L82.0348 36.813H81.8575V32.4233H82.7765V37.9746H81.7922L78.7086 33.5849H78.8812V37.9746H77.9669ZM86.693 38.0306C85.9808 38.0306 85.3868 37.9295 84.911 37.7274C84.4352 37.5252 84.076 37.2173 83.8334 36.8037C83.5939 36.387 83.4742 35.8552 83.4742 35.2083C83.4742 34.5614 83.597 34.0281 83.8427 33.6082C84.0915 33.1852 84.4492 32.8711 84.9157 32.6659C85.3822 32.4575 85.9451 32.3533 86.6044 32.3533C86.8376 32.3533 87.0662 32.3658 87.2901 32.3907C87.5172 32.4155 87.7302 32.4529 87.9292 32.5026V33.3003C87.7146 33.2443 87.5047 33.2039 87.2995 33.179C87.0942 33.1542 86.8874 33.1417 86.679 33.1417C86.2063 33.1417 85.8082 33.2117 85.4848 33.3516C85.1614 33.4885 84.9157 33.7093 84.7477 34.0141C84.5829 34.3157 84.5005 34.7169 84.5005 35.2176C84.5005 35.6934 84.5782 36.0806 84.7337 36.3792C84.8923 36.6778 85.1271 36.8986 85.4381 37.0416C85.7522 37.1816 86.1425 37.2515 86.609 37.2515C86.7708 37.2515 86.9356 37.2453 87.1035 37.2329C87.2746 37.2173 87.4285 37.1971 87.5654 37.1722L87.1595 37.5314V35.2783H88.0785V37.914C87.839 37.9513 87.6027 37.9793 87.3694 37.9979C87.1362 38.0197 86.9107 38.0306 86.693 38.0306ZM90.8263 37.9746V31.0705H91.8153V33.9954H95.216V31.0705H96.2097V37.9746H95.216V34.8771H91.8153V37.9746H90.8263ZM99.5391 38.0446C99.001 38.0446 98.5594 37.9606 98.2142 37.7927C97.869 37.6247 97.6124 37.3728 97.4445 37.037C97.2797 36.7011 97.1973 36.2766 97.1973 35.7634V32.4233H98.1816V35.8521C98.1816 36.3372 98.292 36.6933 98.5128 36.9203C98.7336 37.1442 99.0757 37.2562 99.5391 37.2562C100.009 37.2562 100.352 37.1442 100.57 36.9203C100.791 36.6933 100.901 36.3372 100.901 35.8521V32.4233H101.862V35.7634C101.862 36.2766 101.78 36.7011 101.615 37.037C101.453 37.3728 101.2 37.6247 100.855 37.7927C100.512 37.9606 100.074 38.0446 99.5391 38.0446ZM102.878 37.9746V32.4233H104.048L105.98 36.3932H105.83L107.729 32.4233H108.9V37.9746H107.99V33.2537H108.2L106.297 37.1862H105.481L103.531 33.2583H103.787V37.9746H102.878ZM109.32 37.9746L111.322 32.4233H112.745L114.75 37.9746H113.771L111.966 32.8292H112.087L110.286 37.9746H109.32ZM110.538 36.3559L110.753 35.6048H113.309L113.524 36.3559H110.538ZM115.155 37.9746V32.4233H116.135L119.223 36.813H119.046V32.4233H119.965V37.9746H118.981L115.897 33.5849H116.07V37.9746H115.155ZM122.814 37.9746V31.1964C123.001 31.1591 123.197 31.1249 123.402 31.0938C123.607 31.0627 123.822 31.0394 124.046 31.0238C124.273 31.0052 124.507 30.9958 124.75 30.9958C125.686 30.9958 126.384 31.1653 126.845 31.5043C127.308 31.8433 127.54 32.3735 127.54 33.0951C127.54 33.5616 127.428 33.9534 127.204 34.2706C126.983 34.5847 126.66 34.8227 126.234 34.9844C125.811 35.143 125.291 35.2223 124.675 35.2223C124.501 35.2223 124.346 35.2192 124.209 35.213C124.072 35.2036 123.932 35.1943 123.789 35.185V37.9746H122.814ZM126.975 37.9746L124.605 34.7465H125.692L128.085 37.9746H126.975ZM124.689 34.4526C125.355 34.4526 125.84 34.3437 126.145 34.126C126.45 33.9052 126.602 33.5631 126.602 33.0997C126.602 32.7825 126.54 32.5259 126.415 32.33C126.291 32.131 126.098 31.9864 125.837 31.8962C125.579 31.8029 125.245 31.7562 124.834 31.7562C124.623 31.7562 124.434 31.764 124.27 31.7795C124.108 31.7951 123.948 31.8169 123.789 31.8449V34.4106C123.898 34.4199 123.997 34.4292 124.088 34.4386C124.181 34.4448 124.274 34.4495 124.368 34.4526C124.464 34.4526 124.571 34.4526 124.689 34.4526ZM128.452 37.9746V32.4233H132.357V33.1697H129.418V37.2282H132.394V37.9746H128.452ZM129.049 35.5115V34.7651H131.96V35.5115H129.049ZM134.261 38.0446C134 38.0446 133.734 38.0244 133.463 37.9839C133.193 37.9466 132.942 37.8938 132.712 37.8253V37.037C132.886 37.0898 133.063 37.1334 133.244 37.1676C133.424 37.2018 133.6 37.2282 133.771 37.2469C133.945 37.2655 134.108 37.2749 134.261 37.2749C134.566 37.2749 134.813 37.2422 135.003 37.1769C135.192 37.1116 135.329 37.0183 135.413 36.897C135.5 36.7757 135.544 36.628 135.544 36.4538C135.544 36.3077 135.514 36.1833 135.455 36.0806C135.396 35.978 135.292 35.8894 135.142 35.8147C134.996 35.7401 134.791 35.6717 134.527 35.6095L134.196 35.5395C133.636 35.4182 133.228 35.2316 132.973 34.9797C132.718 34.7278 132.591 34.3935 132.591 33.9767C132.591 33.6564 132.672 33.375 132.833 33.1324C132.998 32.8867 133.252 32.6954 133.594 32.5586C133.936 32.4218 134.373 32.3533 134.905 32.3533C135.135 32.3533 135.365 32.3673 135.595 32.3953C135.825 32.4202 136.033 32.4575 136.22 32.5073V33.291C136.012 33.235 135.799 33.193 135.581 33.165C135.363 33.137 135.144 33.1231 134.923 33.1231C134.587 33.1231 134.32 33.1557 134.121 33.221C133.922 33.2863 133.777 33.3796 133.687 33.5009C133.6 33.6191 133.556 33.7606 133.556 33.9254C133.556 34.1462 133.623 34.3188 133.757 34.4432C133.891 34.5645 134.147 34.6703 134.527 34.7605L134.858 34.8304C135.247 34.9144 135.561 35.0248 135.8 35.1616C136.043 35.2985 136.22 35.468 136.332 35.6701C136.447 35.8723 136.505 36.1148 136.505 36.3979C136.505 36.7306 136.421 37.0198 136.253 37.2655C136.085 37.5112 135.834 37.7025 135.502 37.8393C135.169 37.9762 134.755 38.0446 134.261 38.0446ZM139.39 38.0446C138.865 38.0446 138.406 37.9435 138.014 37.7414C137.622 37.5392 137.317 37.2282 137.1 36.8084C136.882 36.3885 136.773 35.8536 136.773 35.2036C136.773 34.5505 136.882 34.0141 137.1 33.5942C137.317 33.1713 137.622 32.8587 138.014 32.6566C138.409 32.4544 138.868 32.3533 139.39 32.3533C139.919 32.3533 140.379 32.4544 140.771 32.6566C141.166 32.8587 141.471 33.1713 141.685 33.5942C141.903 34.0141 142.012 34.5505 142.012 35.2036C142.012 35.8536 141.903 36.3885 141.685 36.8084C141.468 37.2282 141.161 37.5392 140.766 37.7414C140.375 37.9435 139.916 38.0446 139.39 38.0446ZM139.39 37.2702C139.723 37.2702 140.011 37.2033 140.253 37.0696C140.496 36.9328 140.682 36.7151 140.813 36.4165C140.944 36.1148 141.009 35.7168 141.009 35.2223C141.009 34.7122 140.942 34.3033 140.808 33.9954C140.678 33.6875 140.491 33.4667 140.249 33.333C140.006 33.1961 139.72 33.1277 139.39 33.1277C139.064 33.1277 138.779 33.1946 138.537 33.3283C138.297 33.462 138.112 33.6797 137.981 33.9814C137.851 34.2831 137.785 34.6811 137.785 35.1756C137.785 35.6888 137.849 36.0993 137.977 36.4072C138.107 36.712 138.292 36.9328 138.532 37.0696C138.774 37.2033 139.061 37.2702 139.39 37.2702ZM145.015 38.0446C144.477 38.0446 144.036 37.9606 143.69 37.7927C143.345 37.6247 143.089 37.3728 142.921 37.037C142.756 36.7011 142.673 36.2766 142.673 35.7634V32.4233H143.658V35.8521C143.658 36.3372 143.768 36.6933 143.989 36.9203C144.21 37.1442 144.552 37.2562 145.015 37.2562C145.485 37.2562 145.828 37.1442 146.046 36.9203C146.267 36.6933 146.377 36.3372 146.377 35.8521V32.4233H147.338V35.7634C147.338 36.2766 147.256 36.7011 147.091 37.037C146.929 37.3728 146.676 37.6247 146.331 37.7927C145.989 37.9606 145.55 38.0446 145.015 38.0446ZM148.335 37.9746V32.5306C148.581 32.484 148.848 32.4435 149.137 32.4093C149.43 32.3751 149.733 32.358 150.047 32.358C150.862 32.358 151.471 32.4995 151.876 32.7825C152.28 33.0624 152.482 33.4962 152.482 34.084C152.482 34.4666 152.386 34.7869 152.193 35.045C152 35.3 151.719 35.4929 151.348 35.6235C150.982 35.7541 150.538 35.8194 150.019 35.8194C149.895 35.8194 149.773 35.8178 149.655 35.8147C149.537 35.8085 149.42 35.8007 149.305 35.7914V37.9746H148.335ZM151.852 37.9746L149.888 35.3902H150.957L152.953 37.9746H151.852ZM150.024 35.115C150.559 35.115 150.947 35.031 151.19 34.8631C151.432 34.6951 151.554 34.437 151.554 34.0887C151.554 33.7248 151.44 33.4636 151.213 33.305C150.986 33.1433 150.624 33.0624 150.126 33.0624C149.968 33.0624 149.823 33.0686 149.692 33.0811C149.562 33.0904 149.433 33.1059 149.305 33.1277V35.087C149.442 35.0963 149.56 35.1041 149.66 35.1103C149.759 35.1134 149.881 35.115 150.024 35.115ZM155.75 38.0446C155.15 38.0446 154.635 37.9497 154.206 37.76C153.777 37.5703 153.446 37.2671 153.213 36.8504C152.982 36.4336 152.867 35.8863 152.867 35.2083C152.867 34.5614 152.982 34.0265 153.213 33.6035C153.446 33.1806 153.782 32.8665 154.22 32.6612C154.662 32.456 155.194 32.3533 155.816 32.3533C156.036 32.3533 156.253 32.3658 156.464 32.3907C156.679 32.4124 156.884 32.4482 157.08 32.4979V33.2957C156.884 33.2459 156.686 33.2101 156.487 33.1884C156.291 33.1635 156.089 33.151 155.881 33.151C155.445 33.151 155.08 33.2195 154.785 33.3563C154.492 33.49 154.271 33.7077 154.122 34.0094C153.976 34.308 153.903 34.7045 153.903 35.199C153.903 35.709 153.976 36.1133 154.122 36.4118C154.271 36.7104 154.489 36.925 154.775 37.0556C155.064 37.1831 155.417 37.2469 155.834 37.2469C156.046 37.2469 156.253 37.2313 156.455 37.2002C156.657 37.1691 156.865 37.1209 157.08 37.0556V37.8533C156.89 37.9124 156.68 37.9591 156.45 37.9933C156.223 38.0275 155.99 38.0446 155.75 38.0446ZM157.561 37.9746V32.4233H161.466V33.1697H158.527V37.2282H161.503V37.9746H157.561ZM158.158 35.5115V34.7651H161.069V35.5115H158.158Z" fill="#9C9C9C"/>
<defs>
<linearGradient id="paint0_linear_115_2141" x1="25.0733" y1="-1.68075" x2="39.6319" y2="31.1398" gradientUnits="userSpaceOnUse">
<stop stop-color="#00AEF1"/>
<stop offset="0.15" stop-color="#04A5E9"/>
<stop offset="1" stop-color="#1C76BD"/>
</linearGradient>
<linearGradient id="paint1_linear_115_2141" x1="20.7531" y1="0.237245" x2="32.7639" y2="27.311" gradientUnits="userSpaceOnUse">
<stop stop-color="#00AEF1"/>
<stop offset="1" stop-color="#1C76BD"/>
</linearGradient>
<linearGradient id="paint2_linear_115_2141" x1="34.0969" y1="32.5932" x2="23.4127" y2="50.4707" gradientUnits="userSpaceOnUse">
<stop stop-color="#74B198"/>
<stop offset="1" stop-color="#1F7973"/>
</linearGradient>
<linearGradient id="paint3_linear_115_2141" x1="31.4322" y1="22.2207" x2="19.8229" y2="41.6506" gradientUnits="userSpaceOnUse">
<stop stop-color="#74B198"/>
<stop offset="1" stop-color="#1F7973"/>
</linearGradient>
<linearGradient id="paint4_linear_115_2141" x1="6.44871" y1="20.5837" x2="-2.86388" y2="41.0811" gradientUnits="userSpaceOnUse">
<stop stop-color="#FCB23F"/>
<stop offset="1" stop-color="#F25C2C"/>
</linearGradient>
<linearGradient id="paint5_linear_115_2141" x1="17.5298" y1="15.3561" x2="8.15567" y2="35.9554" gradientUnits="userSpaceOnUse">
<stop stop-color="#FCB23F"/>
<stop offset="1" stop-color="#F25C2C"/>
</linearGradient>
<linearGradient id="paint6_linear_115_2141" x1="40.7554" y1="18.4668" x2="160.755" y2="18.4668" gradientUnits="userSpaceOnUse">
<stop stop-color="#2C8178"/>
<stop offset="1" stop-color="#74B198"/>
</linearGradient>
<clipPath id="clip0_115_2141">
<rect width="38.7928" height="39.2839" fill="white" transform="translate(0 3.42188)"/>
</clipPath>
</defs>
</svg>
