<svg width="1032" height="217" viewBox="0 0 1032 217" fill="none" xmlns="http://www.w3.org/2000/svg">
<mask id="path-1-outside-1_2123_805" maskUnits="userSpaceOnUse" x="-1.50382" y="-0.784775" width="1060.91" height="229.296" fill="black">
<rect fill="white" x="-1.50382" y="-0.784775" width="1060.91" height="229.296"/>
<path d="M31.0407 225.252L28.9172 206.385L54.588 203.496C59.3304 202.962 62.8852 201.153 65.2524 198.067C67.6196 194.982 68.5769 191.429 68.1244 187.408C67.8111 184.625 66.914 182.22 65.4332 180.194C63.9523 178.169 62.0082 176.665 59.6009 175.683C57.2966 174.689 54.5465 174.373 51.3506 174.732L25.6797 177.622L23.6085 159.219L47.2689 156.556C51.2897 156.103 54.4269 154.758 56.6808 152.521C58.923 150.181 59.812 146.949 59.3479 142.825C58.8953 138.804 57.3217 135.954 54.6269 134.273C51.9205 132.49 48.557 131.824 44.5362 132.277L20.8758 134.94L18.7523 116.073L47.0521 112.888C54.0626 112.099 60.1356 112.721 65.2712 114.753C70.5099 116.773 74.6616 119.803 77.7264 123.843C80.7911 127.883 82.6194 132.532 83.2112 137.79C83.9654 144.491 82.4386 150.405 78.6308 155.532C74.8229 160.658 68.7907 164.574 60.5341 167.278L60.2302 159.012C69.603 159.732 77.0654 162.494 82.6173 167.298C88.2724 172.09 91.5409 178.404 92.4228 186.24C93.0958 192.219 92.2101 197.8 89.7657 202.982C87.4128 208.049 83.6094 212.288 78.3556 215.698C73.2048 219.097 66.7633 221.231 59.0312 222.101L31.0407 225.252ZM12.4834 227.341L0.195056 118.162L24.1648 115.464L36.4532 224.643L12.4834 227.341ZM125.47 214.624L113.181 105.445L137.461 102.712L149.749 211.891L125.47 214.624ZM144.027 212.535L141.66 191.503L201.507 184.767L203.874 205.799L144.027 212.535ZM138.892 166.915L136.612 146.657L191.047 140.53L193.327 160.788L138.892 166.915ZM134.088 124.233L131.739 103.356L190.813 96.7075L193.162 117.584L134.088 124.233ZM311.918 193.638L257.567 89.1941L283.547 86.27L325.497 170.968L314.826 172.169L337.363 80.2128L363.034 77.3235L332.795 191.288L311.918 193.638ZM402.058 183.493L389.77 74.3142L414.049 71.5815L426.337 180.76L402.058 183.493ZM420.616 181.404L418.248 160.372L478.095 153.636L480.463 174.668L420.616 181.404ZM415.481 135.784L413.201 115.526L467.635 109.399L469.915 129.657L415.481 135.784ZM410.677 93.1024L408.327 72.2255L467.401 65.5766L469.751 86.4534L410.677 93.1024ZM524.61 124.128L522.591 106.189L545.633 103.595C550.479 103.05 554.051 101.395 556.35 98.6308C558.752 95.8548 559.715 92.3533 559.239 88.1264C558.798 84.2088 557.144 81.1063 554.277 78.819C551.409 76.5317 547.553 75.6607 542.707 76.2061L519.511 78.817L517.387 59.9505L543.367 57.0263C550.584 56.214 557.081 56.8922 562.858 59.0608C568.624 61.1263 573.326 64.4077 576.964 68.9051C580.603 73.4025 582.776 78.7956 583.483 85.0844C584.203 91.4764 583.289 97.2691 580.741 102.463C578.182 107.553 574.27 111.752 569.005 115.059C563.739 118.366 557.343 120.443 549.817 121.29L524.61 124.128ZM511.118 171.217L498.83 62.0391L523.109 59.3065L535.397 168.485L511.118 171.217ZM570.501 164.534L531.188 121.351L552.778 112.814L599.265 161.296L570.501 164.534ZM623.803 158.534L611.514 49.3561L635.793 46.6234L648.082 155.802L623.803 158.534ZM683.026 151.869L670.738 42.6903L695.017 39.9576L707.305 149.136L683.026 151.869ZM696.762 106.944L694.412 86.0668L749.002 79.9226L751.351 100.8L696.762 106.944ZM691.645 61.4785L689.295 40.6016L746.359 34.179L748.708 55.0558L691.645 61.4785ZM788.16 140.036L775.871 30.8572L800.15 28.1245L812.439 137.303L788.16 140.036ZM847.383 133.37L835.095 24.1914L859.374 21.4587L871.662 130.637L847.383 133.37ZM865.941 131.281L863.573 110.25L923.421 103.514L925.788 124.545L865.941 131.281ZM860.806 85.6612L858.526 65.4029L912.96 59.2761L915.241 79.5344L860.806 85.6612ZM856.002 42.9796L853.652 22.1027L912.726 15.4537L915.076 36.3306L856.002 42.9796ZM972.836 119.25L970.434 97.9088L997.496 94.8629C1004.09 94.1202 1009.72 92.1817 1014.38 89.0473C1019.03 85.8099 1022.41 81.5144 1024.52 76.1611C1026.63 70.8077 1027.3 64.6773 1026.52 57.7699C1025.74 50.8624 1023.68 45.0911 1020.34 40.4558C1017.11 35.8089 1012.86 32.4237 1007.61 30.3002C1002.47 28.1651 996.592 27.4689 989.994 28.2115L962.159 31.3445L959.774 10.1583L987.919 6.99051C996.167 6.06221 1003.9 6.54958 1011.1 8.45262C1018.4 10.2409 1024.91 13.3193 1030.62 17.6877C1036.43 21.9414 1041.1 27.2622 1044.63 33.6502C1048.26 39.9234 1050.53 47.0807 1051.44 55.1222C1052.33 63.0606 1051.71 70.5428 1049.58 77.5689C1047.55 84.5835 1044.23 90.8036 1039.62 96.2292C1035.01 101.655 1029.35 106.103 1022.64 109.572C1016.04 113.03 1008.66 115.217 1000.52 116.134L972.836 119.25ZM956.443 121.095L944.155 11.9163L968.434 9.18362L980.722 118.362L956.443 121.095Z"/>
</mask>
<path d="M31.0407 225.252L28.9172 206.385L54.588 203.496C59.3304 202.962 62.8852 201.153 65.2524 198.067C67.6196 194.982 68.5769 191.429 68.1244 187.408C67.8111 184.625 66.914 182.22 65.4332 180.194C63.9523 178.169 62.0082 176.665 59.6009 175.683C57.2966 174.689 54.5465 174.373 51.3506 174.732L25.6797 177.622L23.6085 159.219L47.2689 156.556C51.2897 156.103 54.4269 154.758 56.6808 152.521C58.923 150.181 59.812 146.949 59.3479 142.825C58.8953 138.804 57.3217 135.954 54.6269 134.273C51.9205 132.49 48.557 131.824 44.5362 132.277L20.8758 134.94L18.7523 116.073L47.0521 112.888C54.0626 112.099 60.1356 112.721 65.2712 114.753C70.5099 116.773 74.6616 119.803 77.7264 123.843C80.7911 127.883 82.6194 132.532 83.2112 137.79C83.9654 144.491 82.4386 150.405 78.6308 155.532C74.8229 160.658 68.7907 164.574 60.5341 167.278L60.2302 159.012C69.603 159.732 77.0654 162.494 82.6173 167.298C88.2724 172.09 91.5409 178.404 92.4228 186.24C93.0958 192.219 92.2101 197.8 89.7657 202.982C87.4128 208.049 83.6094 212.288 78.3556 215.698C73.2048 219.097 66.7633 221.231 59.0312 222.101L31.0407 225.252ZM12.4834 227.341L0.195056 118.162L24.1648 115.464L36.4532 224.643L12.4834 227.341ZM125.47 214.624L113.181 105.445L137.461 102.712L149.749 211.891L125.47 214.624ZM144.027 212.535L141.66 191.503L201.507 184.767L203.874 205.799L144.027 212.535ZM138.892 166.915L136.612 146.657L191.047 140.53L193.327 160.788L138.892 166.915ZM134.088 124.233L131.739 103.356L190.813 96.7075L193.162 117.584L134.088 124.233ZM311.918 193.638L257.567 89.1941L283.547 86.27L325.497 170.968L314.826 172.169L337.363 80.2128L363.034 77.3235L332.795 191.288L311.918 193.638ZM402.058 183.493L389.77 74.3142L414.049 71.5815L426.337 180.76L402.058 183.493ZM420.616 181.404L418.248 160.372L478.095 153.636L480.463 174.668L420.616 181.404ZM415.481 135.784L413.201 115.526L467.635 109.399L469.915 129.657L415.481 135.784ZM410.677 93.1024L408.327 72.2255L467.401 65.5766L469.751 86.4534L410.677 93.1024ZM524.61 124.128L522.591 106.189L545.633 103.595C550.479 103.05 554.051 101.395 556.35 98.6308C558.752 95.8548 559.715 92.3533 559.239 88.1264C558.798 84.2088 557.144 81.1063 554.277 78.819C551.409 76.5317 547.553 75.6607 542.707 76.2061L519.511 78.817L517.387 59.9505L543.367 57.0263C550.584 56.214 557.081 56.8922 562.858 59.0608C568.624 61.1263 573.326 64.4077 576.964 68.9051C580.603 73.4025 582.776 78.7956 583.483 85.0844C584.203 91.4764 583.289 97.2691 580.741 102.463C578.182 107.553 574.27 111.752 569.005 115.059C563.739 118.366 557.343 120.443 549.817 121.29L524.61 124.128ZM511.118 171.217L498.83 62.0391L523.109 59.3065L535.397 168.485L511.118 171.217ZM570.501 164.534L531.188 121.351L552.778 112.814L599.265 161.296L570.501 164.534ZM623.803 158.534L611.514 49.3561L635.793 46.6234L648.082 155.802L623.803 158.534ZM683.026 151.869L670.738 42.6903L695.017 39.9576L707.305 149.136L683.026 151.869ZM696.762 106.944L694.412 86.0668L749.002 79.9226L751.351 100.8L696.762 106.944ZM691.645 61.4785L689.295 40.6016L746.359 34.179L748.708 55.0558L691.645 61.4785ZM788.16 140.036L775.871 30.8572L800.15 28.1245L812.439 137.303L788.16 140.036ZM847.383 133.37L835.095 24.1914L859.374 21.4587L871.662 130.637L847.383 133.37ZM865.941 131.281L863.573 110.25L923.421 103.514L925.788 124.545L865.941 131.281ZM860.806 85.6612L858.526 65.4029L912.96 59.2761L915.241 79.5344L860.806 85.6612ZM856.002 42.9796L853.652 22.1027L912.726 15.4537L915.076 36.3306L856.002 42.9796ZM972.836 119.25L970.434 97.9088L997.496 94.8629C1004.09 94.1202 1009.72 92.1817 1014.38 89.0473C1019.03 85.8099 1022.41 81.5144 1024.52 76.1611C1026.63 70.8077 1027.3 64.6773 1026.52 57.7699C1025.74 50.8624 1023.68 45.0911 1020.34 40.4558C1017.11 35.8089 1012.86 32.4237 1007.61 30.3002C1002.47 28.1651 996.592 27.4689 989.994 28.2115L962.159 31.3445L959.774 10.1583L987.919 6.99051C996.167 6.06221 1003.9 6.54958 1011.1 8.45262C1018.4 10.2409 1024.91 13.3193 1030.62 17.6877C1036.43 21.9414 1041.1 27.2622 1044.63 33.6502C1048.26 39.9234 1050.53 47.0807 1051.44 55.1222C1052.33 63.0606 1051.71 70.5428 1049.58 77.5689C1047.55 84.5835 1044.23 90.8036 1039.62 96.2292C1035.01 101.655 1029.35 106.103 1022.64 109.572C1016.04 113.03 1008.66 115.217 1000.52 116.134L972.836 119.25ZM956.443 121.095L944.155 11.9163L968.434 9.18362L980.722 118.362L956.443 121.095Z" fill="white" fill-opacity="0.04"/>
<path d="M31.0407 225.252L30.0469 225.364L30.1588 226.357L31.1525 226.246L31.0407 225.252ZM28.9172 206.385L28.8053 205.392L27.8116 205.503L27.9235 206.497L28.9172 206.385ZM65.2524 198.067L66.0458 198.676L65.2524 198.067ZM59.6009 175.683L59.205 176.601L59.2141 176.605L59.2232 176.609L59.6009 175.683ZM25.6797 177.622L24.686 177.733L24.7979 178.727L25.7916 178.615L25.6797 177.622ZM23.6085 159.219L23.4966 158.225L22.5029 158.337L22.6147 159.331L23.6085 159.219ZM56.6808 152.521L57.3853 153.231L57.3942 153.222L57.4029 153.213L56.6808 152.521ZM54.6269 134.273L54.0766 135.108L54.0871 135.115L54.0978 135.122L54.6269 134.273ZM20.8758 134.94L19.882 135.052L19.9939 136.046L20.9876 135.934L20.8758 134.94ZM18.7523 116.073L18.6404 115.08L17.6467 115.192L17.7586 116.185L18.7523 116.073ZM65.2712 114.753L64.9033 115.683L64.9114 115.686L65.2712 114.753ZM77.7264 123.843L76.9297 124.448L77.7264 123.843ZM78.6308 155.532L79.4336 156.128L78.6308 155.532ZM60.5341 167.278L59.5348 167.315L59.5836 168.642L60.8454 168.228L60.5341 167.278ZM60.2302 159.012L60.3068 158.015L59.1897 157.929L59.2309 159.049L60.2302 159.012ZM82.6173 167.298L81.963 168.054L81.9708 168.061L82.6173 167.298ZM89.7657 202.982L88.8613 202.555L88.8587 202.561L89.7657 202.982ZM78.3556 215.698L77.8111 214.859L77.8048 214.863L78.3556 215.698ZM12.4834 227.341L11.4897 227.452L11.6016 228.446L12.5953 228.334L12.4834 227.341ZM0.195056 118.162L0.0832086 117.168L-0.910517 117.28L-0.79867 118.274L0.195056 118.162ZM24.1648 115.464L25.1585 115.352L25.0467 114.359L24.053 114.471L24.1648 115.464ZM36.4532 224.643L36.565 225.636L37.5588 225.525L37.4469 224.531L36.4532 224.643ZM32.0344 225.14L29.9109 206.273L27.9235 206.497L30.0469 225.364L32.0344 225.14ZM29.029 207.379L54.6999 204.49L54.4762 202.502L28.8053 205.392L29.029 207.379ZM54.6999 204.49C59.6467 203.933 63.4769 202.024 66.0458 198.676L64.459 197.459C62.2935 200.281 59.0141 201.991 54.4762 202.502L54.6999 204.49ZM66.0458 198.676C68.5774 195.377 69.5983 191.563 69.1181 187.297L67.1306 187.52C67.5555 191.295 66.6618 194.588 64.459 197.459L66.0458 198.676ZM69.1181 187.297C68.7876 184.361 67.8355 181.786 66.2405 179.604L64.6259 180.784C65.9924 182.654 66.8345 184.889 67.1306 187.52L69.1181 187.297ZM66.2405 179.604C64.6462 177.423 62.551 175.806 59.9786 174.757L59.2232 176.609C61.4655 177.523 63.2584 178.914 64.6259 180.784L66.2405 179.604ZM59.9968 174.765C57.4938 173.685 54.5599 173.365 51.2387 173.739L51.4624 175.726C54.5331 175.38 57.0995 175.693 59.205 176.601L59.9968 174.765ZM51.2387 173.739L25.5679 176.628L25.7916 178.615L51.4624 175.726L51.2387 173.739ZM26.6735 177.51L24.6022 159.107L22.6147 159.331L24.686 177.733L26.6735 177.51ZM23.7203 160.213L47.3808 157.55L47.1571 155.562L23.4966 158.225L23.7203 160.213ZM47.3808 157.55C51.5631 157.079 54.9321 155.666 57.3853 153.231L55.9763 151.811C53.9218 153.851 51.0162 155.128 47.1571 155.562L47.3808 157.55ZM57.4029 153.213C59.9053 150.601 60.8289 147.042 60.3416 142.713L58.3541 142.937C58.7951 146.855 57.9406 149.761 55.9587 151.829L57.4029 153.213ZM60.3416 142.713C59.8651 138.479 58.1788 135.31 55.156 133.425L54.0978 135.122C56.4645 136.598 57.9255 139.129 58.3541 142.937L60.3416 142.713ZM55.1771 133.438C52.2307 131.497 48.6182 130.811 44.4244 131.283L44.6481 133.271C48.4958 132.838 51.6103 133.483 54.0766 135.108L55.1771 133.438ZM44.4244 131.283L20.7639 133.946L20.9876 135.934L44.6481 133.271L44.4244 131.283ZM21.8695 134.828L19.746 115.962L17.7586 116.185L19.882 135.052L21.8695 134.828ZM18.8641 117.067L47.1639 113.882L46.9402 111.895L18.6404 115.08L18.8641 117.067ZM47.1639 113.882C54.0557 113.106 59.9564 113.725 64.9033 115.683L65.6391 113.823C60.3148 111.716 54.0695 111.092 46.9402 111.895L47.1639 113.882ZM64.9114 115.686C69.9959 117.647 73.989 120.571 76.9297 124.448L78.5231 123.239C75.3342 119.035 71.0239 115.9 65.631 113.82L64.9114 115.686ZM76.9297 124.448C79.8808 128.338 81.6449 132.815 82.2175 137.902L84.2049 137.678C83.5939 132.249 81.7015 127.429 78.5231 123.239L76.9297 124.448ZM82.2175 137.902C82.9451 144.367 81.4758 150.024 77.828 154.935L79.4336 156.128C83.4015 150.786 84.9857 144.615 84.2049 137.678L82.2175 137.902ZM77.828 154.935C74.1808 159.846 68.3523 163.665 60.2229 166.328L60.8454 168.228C69.2291 165.482 75.465 161.471 79.4336 156.128L77.828 154.935ZM61.5334 167.241L61.2295 158.975L59.2309 159.049L59.5348 167.315L61.5334 167.241ZM60.1536 160.009C69.3731 160.717 76.6132 163.425 81.963 168.054L83.2717 166.542C77.5175 161.563 69.8328 158.747 60.3068 158.015L60.1536 160.009ZM81.9708 168.061C87.4182 172.677 90.5737 178.752 91.4291 186.351L93.4165 186.128C92.5081 178.057 89.1266 171.504 83.2639 166.535L81.9708 168.061ZM91.4291 186.351C92.0825 192.156 91.2225 197.55 88.8613 202.555L90.6702 203.408C93.1977 198.05 94.1092 192.282 93.4165 186.128L91.4291 186.351ZM88.8587 202.561C86.5943 207.437 82.9269 211.539 77.8111 214.859L78.9 216.537C84.2919 213.037 88.2313 208.661 90.6727 203.403L88.8587 202.561ZM77.8048 214.863C72.8156 218.155 66.5346 220.251 58.9193 221.108L59.143 223.095C66.9921 222.212 73.594 220.038 78.9063 216.533L77.8048 214.863ZM58.9193 221.108L30.9288 224.258L31.1525 226.246L59.143 223.095L58.9193 221.108ZM13.4772 227.229L1.18878 118.05L-0.79867 118.274L11.4897 227.452L13.4772 227.229ZM0.306903 119.156L24.2767 116.458L24.053 114.471L0.0832086 117.168L0.306903 119.156ZM23.1711 115.576L35.4595 224.754L37.4469 224.531L25.1585 115.352L23.1711 115.576ZM36.3413 223.649L12.3716 226.347L12.5953 228.334L36.565 225.636L36.3413 223.649ZM125.47 214.624L124.476 214.735L124.588 215.729L125.582 215.617L125.47 214.624ZM113.181 105.445L113.07 104.451L112.076 104.563L112.188 105.557L113.181 105.445ZM137.461 102.712L138.454 102.601L138.342 101.607L137.349 101.719L137.461 102.712ZM149.749 211.891L149.861 212.885L150.854 212.773L150.743 211.779L149.749 211.891ZM144.027 212.535L143.033 212.647L143.145 213.64L144.139 213.529L144.027 212.535ZM141.66 191.503L141.548 190.51L140.554 190.621L140.666 191.615L141.66 191.503ZM201.507 184.767L202.501 184.655L202.389 183.662L201.395 183.774L201.507 184.767ZM203.874 205.799L203.986 206.793L204.98 206.681L204.868 205.687L203.874 205.799ZM138.892 166.915L137.899 167.027L138.011 168.021L139.004 167.909L138.892 166.915ZM136.612 146.657L136.5 145.663L135.507 145.775L135.619 146.769L136.612 146.657ZM191.047 140.53L192.041 140.418L191.929 139.424L190.935 139.536L191.047 140.53ZM193.327 160.788L193.439 161.782L194.433 161.67L194.321 160.676L193.327 160.788ZM134.088 124.233L133.095 124.345L133.207 125.339L134.2 125.227L134.088 124.233ZM131.739 103.356L131.627 102.363L130.633 102.475L130.745 103.468L131.739 103.356ZM190.813 96.7075L191.806 96.5957L191.694 95.602L190.701 95.7138L190.813 96.7075ZM193.162 117.584L193.274 118.578L194.268 118.466L194.156 117.473L193.162 117.584ZM126.464 214.512L114.175 105.333L112.188 105.557L124.476 214.735L126.464 214.512ZM113.293 106.439L137.572 103.706L137.349 101.719L113.07 104.451L113.293 106.439ZM136.467 102.824L148.755 212.003L150.743 211.779L138.454 102.601L136.467 102.824ZM149.637 210.897L125.358 213.63L125.582 215.617L149.861 212.885L149.637 210.897ZM145.021 212.423L142.654 191.391L140.666 191.615L143.033 212.647L145.021 212.423ZM141.772 192.497L201.619 185.761L201.395 183.774L141.548 190.51L141.772 192.497ZM200.513 184.879L202.88 205.911L204.868 205.687L202.501 184.655L200.513 184.879ZM203.762 204.805L143.915 211.541L144.139 213.529L203.986 206.793L203.762 204.805ZM139.886 166.803L137.606 146.545L135.619 146.769L137.899 167.027L139.886 166.803ZM136.724 147.65L191.159 141.524L190.935 139.536L136.5 145.663L136.724 147.65ZM190.053 140.642L192.333 160.9L194.321 160.676L192.041 140.418L190.053 140.642ZM193.215 159.794L138.781 165.921L139.004 167.909L193.439 161.782L193.215 159.794ZM135.082 124.122L132.732 103.245L130.745 103.468L133.095 124.345L135.082 124.122ZM131.851 104.35L190.924 97.7012L190.701 95.7138L131.627 102.363L131.851 104.35ZM189.819 96.8194L192.169 117.696L194.156 117.473L191.806 96.5957L189.819 96.8194ZM193.05 116.591L133.977 123.24L134.2 125.227L193.274 118.578L193.05 116.591ZM311.918 193.638L311.031 194.1L311.348 194.709L312.03 194.632L311.918 193.638ZM257.567 89.1941L257.455 88.2004L256.007 88.3634L256.68 89.6558L257.567 89.1941ZM283.547 86.27L284.443 85.8262L284.132 85.1978L283.435 85.2763L283.547 86.27ZM325.497 170.968L325.608 171.962L327.026 171.803L326.393 170.525L325.497 170.968ZM314.826 172.169L313.855 171.931L313.514 173.324L314.938 173.163L314.826 172.169ZM337.363 80.2128L337.251 79.2191L336.558 79.2971L336.391 79.9748L337.363 80.2128ZM363.034 77.3235L364 77.5799L364.375 76.1662L362.922 76.3297L363.034 77.3235ZM332.795 191.288L332.907 192.282L333.586 192.206L333.761 191.545L332.795 191.288ZM312.805 193.177L258.454 88.7325L256.68 89.6558L311.031 194.1L312.805 193.177ZM257.678 90.1879L283.659 87.2637L283.435 85.2763L257.455 88.2004L257.678 90.1879ZM282.651 86.7138L324.6 171.412L326.393 170.525L284.443 85.8262L282.651 86.7138ZM325.385 169.975L314.714 171.176L314.938 173.163L325.608 171.962L325.385 169.975ZM315.797 172.408L338.334 80.4508L336.391 79.9748L313.855 171.931L315.797 172.408ZM337.475 81.2065L363.145 78.3172L362.922 76.3297L337.251 79.2191L337.475 81.2065ZM362.067 77.067L331.828 191.032L333.761 191.545L364 77.5799L362.067 77.067ZM332.683 190.295L311.806 192.644L312.03 194.632L332.907 192.282L332.683 190.295ZM402.058 183.493L401.065 183.604L401.176 184.598L402.17 184.486L402.058 183.493ZM389.77 74.3142L389.658 73.3205L388.664 73.4323L388.776 74.4261L389.77 74.3142ZM414.049 71.5815L415.043 71.4697L414.931 70.4759L413.937 70.5878L414.049 71.5815ZM426.337 180.76L426.449 181.754L427.443 181.642L427.331 180.648L426.337 180.76ZM420.616 181.404L419.622 181.516L419.734 182.509L420.727 182.398L420.616 181.404ZM418.248 160.372L418.137 159.379L417.143 159.49L417.255 160.484L418.248 160.372ZM478.095 153.636L479.089 153.525L478.977 152.531L477.984 152.643L478.095 153.636ZM480.463 174.668L480.574 175.662L481.568 175.55L481.456 174.556L480.463 174.668ZM415.481 135.784L414.487 135.896L414.599 136.89L415.593 136.778L415.481 135.784ZM413.201 115.526L413.089 114.532L412.095 114.644L412.207 115.638L413.201 115.526ZM467.635 109.399L468.629 109.287L468.517 108.293L467.523 108.405L467.635 109.399ZM469.915 129.657L470.027 130.651L471.021 130.539L470.909 129.545L469.915 129.657ZM410.677 93.1024L409.683 93.2142L409.795 94.208L410.789 94.0961L410.677 93.1024ZM408.327 72.2255L408.215 71.2318L407.222 71.3436L407.333 72.3374L408.327 72.2255ZM467.401 65.5766L468.395 65.4647L468.283 64.471L467.289 64.5828L467.401 65.5766ZM469.751 86.4534L469.863 87.4472L470.856 87.3353L470.744 86.3416L469.751 86.4534ZM403.052 183.381L390.764 74.2024L388.776 74.4261L401.065 183.604L403.052 183.381ZM389.882 75.3079L414.161 72.5752L413.937 70.5878L389.658 73.3205L389.882 75.3079ZM413.055 71.6934L425.344 180.872L427.331 180.648L415.043 71.4697L413.055 71.6934ZM426.226 179.766L401.946 182.499L402.17 184.486L426.449 181.754L426.226 179.766ZM421.609 181.292L419.242 160.261L417.255 160.484L419.622 181.516L421.609 181.292ZM418.36 161.366L478.207 154.63L477.984 152.643L418.137 159.379L418.36 161.366ZM477.102 153.748L479.469 174.78L481.456 174.556L479.089 153.525L477.102 153.748ZM480.351 173.674L420.504 180.41L420.727 182.398L480.574 175.662L480.351 173.674ZM416.475 135.672L414.194 115.414L412.207 115.638L414.487 135.896L416.475 135.672ZM413.313 116.519L467.747 110.393L467.523 108.405L413.089 114.532L413.313 116.519ZM466.642 109.511L468.922 129.769L470.909 129.545L468.629 109.287L466.642 109.511ZM469.804 128.664L415.369 134.79L415.593 136.778L470.027 130.651L469.804 128.664ZM411.671 92.9906L409.321 72.1137L407.333 72.3374L409.683 93.2142L411.671 92.9906ZM408.439 73.2193L467.513 66.5703L467.289 64.5828L408.215 71.2318L408.439 73.2193ZM466.407 65.6884L468.757 86.5653L470.744 86.3416L468.395 65.4647L466.407 65.6884ZM469.639 85.4597L410.565 92.1087L410.789 94.0961L469.863 87.4472L469.639 85.4597ZM524.61 124.128L523.617 124.239L523.729 125.233L524.722 125.121L524.61 124.128ZM522.591 106.189L522.48 105.195L521.486 105.307L521.598 106.301L522.591 106.189ZM556.35 98.6308L555.594 97.9765L555.587 97.9839L555.581 97.9914L556.35 98.6308ZM554.277 78.819L553.653 79.6008L554.277 78.819ZM519.511 78.817L518.517 78.9288L518.629 79.9225L519.622 79.8107L519.511 78.817ZM517.387 59.9505L517.275 58.9567L516.282 59.0686L516.393 60.0623L517.387 59.9505ZM562.858 59.0608L562.507 59.997L562.514 59.9997L562.521 60.0022L562.858 59.0608ZM576.964 68.9051L577.742 68.2762L576.964 68.9051ZM580.741 102.463L581.635 102.912L581.639 102.903L580.741 102.463ZM569.005 115.059L569.536 115.906L569.005 115.059ZM511.118 171.217L510.125 171.329L510.236 172.323L511.23 172.211L511.118 171.217ZM498.83 62.0391L498.718 61.0454L497.724 61.1573L497.836 62.151L498.83 62.0391ZM523.109 59.3065L524.103 59.1946L523.991 58.2009L522.997 58.3127L523.109 59.3065ZM535.397 168.485L535.509 169.479L536.503 169.367L536.391 168.373L535.397 168.485ZM570.501 164.534L569.762 165.207L570.106 165.585L570.613 165.527L570.501 164.534ZM531.188 121.351L530.821 120.421L529.474 120.954L530.449 122.025L531.188 121.351ZM552.778 112.814L553.5 112.122L553.035 111.637L552.411 111.884L552.778 112.814ZM599.265 161.296L599.377 162.29L601.386 162.064L599.987 160.604L599.265 161.296ZM525.604 124.016L523.585 106.077L521.598 106.301L523.617 124.239L525.604 124.016ZM522.703 107.183L545.745 104.589L545.521 102.602L522.48 105.195L522.703 107.183ZM545.745 104.589C550.754 104.025 554.603 102.295 557.119 99.2702L555.581 97.9914C553.499 100.495 550.204 102.075 545.521 102.602L545.745 104.589ZM557.106 99.2851C559.72 96.264 560.735 92.4706 560.233 88.0146L558.246 88.2383C558.696 92.2361 557.784 95.4456 555.594 97.9765L557.106 99.2851ZM560.233 88.0146C559.765 83.8552 557.992 80.5031 554.9 78.0373L553.653 79.6008C556.297 81.7095 557.832 84.5624 558.246 88.2383L560.233 88.0146ZM554.9 78.0373C551.764 75.5357 547.615 74.6475 542.595 75.2124L542.819 77.1998C547.491 76.674 551.054 77.5278 553.653 79.6008L554.9 78.0373ZM542.595 75.2124L519.399 77.8232L519.622 79.8107L542.819 77.1998L542.595 75.2124ZM520.504 78.7051L518.381 59.8386L516.393 60.0623L518.517 78.9288L520.504 78.7051ZM517.499 60.9442L543.479 58.02L543.255 56.0326L517.275 58.9567L517.499 60.9442ZM543.479 58.02C550.567 57.2223 556.901 57.8929 562.507 59.997L563.21 58.1246C557.261 55.8915 550.601 55.2058 543.255 56.0326L543.479 58.02ZM562.521 60.0022C568.125 62.0097 572.671 65.1877 576.187 69.534L577.742 68.2762C573.981 63.6277 569.123 60.2429 563.196 58.1194L562.521 60.0022ZM576.187 69.534C579.694 73.8694 581.801 79.0784 582.49 85.1963L584.477 84.9726C583.75 78.5128 581.511 72.9356 577.742 68.2762L576.187 69.534ZM582.49 85.1963C583.19 91.4207 582.298 97.0187 579.844 102.022L581.639 102.903C584.28 97.5196 585.215 91.5321 584.477 84.9726L582.49 85.1963ZM579.848 102.014C577.378 106.926 573.598 110.993 568.473 114.212L569.536 115.906C574.942 112.511 578.986 108.18 581.635 102.912L579.848 102.014ZM568.473 114.212C563.359 117.424 557.114 119.463 549.706 120.297L549.929 122.284C557.572 121.424 564.119 119.308 569.536 115.906L568.473 114.212ZM549.706 120.297L524.499 123.134L524.722 125.121L549.929 122.284L549.706 120.297ZM512.112 171.106L499.824 61.9273L497.836 62.151L510.125 171.329L512.112 171.106ZM498.942 63.0329L523.221 60.3002L522.997 58.3127L498.718 61.0454L498.942 63.0329ZM522.115 59.4183L534.404 168.597L536.391 168.373L524.103 59.1946L522.115 59.4183ZM535.285 167.491L511.006 170.224L511.23 172.211L535.509 169.479L535.285 167.491ZM571.241 163.861L531.928 120.678L530.449 122.025L569.762 165.207L571.241 163.861ZM531.556 122.281L553.146 113.744L552.411 111.884L530.821 120.421L531.556 122.281ZM552.057 113.506L598.543 161.988L599.987 160.604L553.5 112.122L552.057 113.506ZM599.153 160.303L570.39 163.54L570.613 165.527L599.377 162.29L599.153 160.303ZM623.803 158.534L622.809 158.646L622.921 159.64L623.914 159.528L623.803 158.534ZM611.514 49.3561L611.402 48.3624L610.409 48.4743L610.521 49.468L611.514 49.3561ZM635.793 46.6234L636.787 46.5116L636.675 45.5179L635.681 45.6297L635.793 46.6234ZM648.082 155.802L648.194 156.796L649.187 156.684L649.075 155.69L648.082 155.802ZM624.796 158.423L612.508 49.2443L610.521 49.468L622.809 158.646L624.796 158.423ZM611.626 50.3499L635.905 47.6172L635.681 45.6297L611.402 48.3624L611.626 50.3499ZM634.8 46.7353L647.088 155.914L649.075 155.69L636.787 46.5116L634.8 46.7353ZM647.97 154.808L623.691 157.541L623.914 159.528L648.194 156.796L647.97 154.808ZM683.026 151.869L682.033 151.981L682.144 152.974L683.138 152.862L683.026 151.869ZM670.738 42.6903L670.626 41.6966L669.632 41.8084L669.744 42.8022L670.738 42.6903ZM695.017 39.9576L696.011 39.8458L695.899 38.8521L694.905 38.9639L695.017 39.9576ZM707.305 149.136L707.417 150.13L708.411 150.018L708.299 149.024L707.305 149.136ZM696.762 106.944L695.768 107.056L695.88 108.049L696.874 107.937L696.762 106.944ZM694.412 86.0668L694.301 85.0731L693.307 85.185L693.419 86.1787L694.412 86.0668ZM749.002 79.9226L749.995 79.8108L749.883 78.8171L748.89 78.9289L749.002 79.9226ZM751.351 100.8L751.463 101.793L752.457 101.681L752.345 100.688L751.351 100.8ZM691.645 61.4785L690.651 61.5904L690.763 62.5841L691.757 62.4722L691.645 61.4785ZM689.295 40.6016L689.183 39.6079L688.19 39.7198L688.301 40.7135L689.295 40.6016ZM746.359 34.1789L747.352 34.0671L747.241 33.0734L746.247 33.1852L746.359 34.1789ZM748.708 55.0558L748.82 56.0496L749.814 55.9377L749.702 54.944L748.708 55.0558ZM684.02 151.757L671.732 42.5785L669.744 42.8022L682.033 151.981L684.02 151.757ZM670.85 43.684L695.129 40.9513L694.905 38.9639L670.626 41.6966L670.85 43.684ZM694.023 40.0695L706.312 149.248L708.299 149.024L696.011 39.8458L694.023 40.0695ZM707.194 148.142L682.914 150.875L683.138 152.862L707.417 150.13L707.194 148.142ZM697.756 106.832L695.406 85.955L693.419 86.1787L695.768 107.056L697.756 106.832ZM694.524 87.0606L749.113 80.9164L748.89 78.9289L694.301 85.0731L694.524 87.0606ZM748.008 80.0345L750.358 100.911L752.345 100.688L749.995 79.8108L748.008 80.0345ZM751.239 99.8058L696.65 105.95L696.874 107.937L751.463 101.793L751.239 99.8058ZM692.639 61.3667L690.289 40.4898L688.301 40.7135L690.651 61.5904L692.639 61.3667ZM689.407 41.5954L746.47 35.1727L746.247 33.1852L689.183 39.6079L689.407 41.5954ZM745.365 34.2908L747.715 55.1677L749.702 54.944L747.352 34.0671L745.365 34.2908ZM748.597 54.0621L691.533 60.4848L691.757 62.4722L748.82 56.0496L748.597 54.0621ZM788.16 140.036L787.166 140.147L787.278 141.141L788.272 141.029L788.16 140.036ZM775.871 30.8572L775.76 29.8635L774.766 29.9753L774.878 30.969L775.871 30.8572ZM800.15 28.1245L801.144 28.0127L801.032 27.0189L800.039 27.1308L800.15 28.1245ZM812.439 137.303L812.551 138.297L813.544 138.185L813.433 137.191L812.439 137.303ZM789.153 139.924L776.865 30.7453L774.878 30.969L787.166 140.147L789.153 139.924ZM775.983 31.8509L800.262 29.1182L800.039 27.1308L775.76 29.8635L775.983 31.8509ZM799.157 28.2363L811.445 137.415L813.433 137.191L801.144 28.0127L799.157 28.2363ZM812.327 136.309L788.048 139.042L788.272 141.029L812.551 138.297L812.327 136.309ZM847.383 133.37L846.39 133.482L846.502 134.475L847.495 134.363L847.383 133.37ZM835.095 24.1914L834.983 23.1976L833.989 23.3095L834.101 24.3032L835.095 24.1914ZM859.374 21.4587L860.368 21.3468L860.256 20.3531L859.262 20.465L859.374 21.4587ZM871.662 130.637L871.774 131.631L872.768 131.519L872.656 130.525L871.662 130.637ZM865.941 131.281L864.947 131.393L865.059 132.387L866.052 132.275L865.941 131.281ZM863.573 110.25L863.462 109.256L862.468 109.368L862.58 110.361L863.573 110.25ZM923.421 103.514L924.414 103.402L924.302 102.408L923.309 102.52L923.421 103.514ZM925.788 124.545L925.9 125.539L926.893 125.427L926.781 124.433L925.788 124.545ZM860.806 85.6612L859.812 85.773L859.924 86.7668L860.918 86.6549L860.806 85.6612ZM858.526 65.4029L858.414 64.4092L857.42 64.521L857.532 65.5147L858.526 65.4029ZM912.96 59.2761L913.954 59.1643L913.842 58.1705L912.849 58.2824L912.96 59.2761ZM915.24 79.5344L915.352 80.5281L916.346 80.4163L916.234 79.4226L915.24 79.5344ZM856.002 42.9796L855.008 43.0914L855.12 44.0851L856.114 43.9733L856.002 42.9796ZM853.652 22.1027L853.54 21.109L852.547 21.2208L852.658 22.2145L853.652 22.1027ZM912.726 15.4537L913.72 15.3419L913.608 14.3482L912.614 14.46L912.726 15.4537ZM915.076 36.3306L915.188 37.3243L916.181 37.2125L916.07 36.2188L915.076 36.3306ZM848.377 133.258L836.089 24.0795L834.101 24.3032L846.39 133.482L848.377 133.258ZM835.207 25.1851L859.486 22.4524L859.262 20.465L834.983 23.1976L835.207 25.1851ZM858.38 21.5705L870.669 130.749L872.656 130.525L860.368 21.3468L858.38 21.5705ZM871.551 129.643L847.272 132.376L847.495 134.363L871.774 131.631L871.551 129.643ZM866.934 131.169L864.567 110.138L862.58 110.361L864.947 131.393L866.934 131.169ZM863.685 111.243L923.532 104.507L923.309 102.52L863.462 109.256L863.685 111.243ZM922.427 103.625L924.794 124.657L926.781 124.433L924.414 103.402L922.427 103.625ZM925.676 123.551L865.829 130.287L866.052 132.275L925.9 125.539L925.676 123.551ZM861.8 85.5493L859.52 65.291L857.532 65.5147L859.812 85.773L861.8 85.5493ZM858.638 66.3966L913.072 60.2698L912.849 58.2824L858.414 64.4092L858.638 66.3966ZM911.967 59.3879L914.247 79.6463L916.234 79.4226L913.954 59.1643L911.967 59.3879ZM915.129 78.5407L860.694 84.6675L860.918 86.6549L915.352 80.5281L915.129 78.5407ZM856.996 42.8677L854.646 21.9908L852.658 22.2145L855.008 43.0914L856.996 42.8677ZM853.764 23.0964L912.838 16.4475L912.614 14.46L853.54 21.109L853.764 23.0964ZM911.732 15.5656L914.082 36.4425L916.07 36.2188L913.72 15.3419L911.732 15.5656ZM914.964 35.3369L855.89 41.9858L856.114 43.9733L915.188 37.3243L914.964 35.3369ZM972.836 119.25L971.842 119.362L971.954 120.355L972.947 120.243L972.836 119.25ZM970.434 97.9089L970.322 96.9151L969.328 97.027L969.44 98.0207L970.434 97.9089ZM1014.38 89.0473L1014.94 89.877L1014.95 89.8725L1014.95 89.8678L1014.38 89.0473ZM1020.34 40.4558L1019.52 41.0274L1019.53 41.034L1019.53 41.0405L1020.34 40.4558ZM1007.61 30.3002L1007.23 31.2239L1007.24 31.2272L1007.61 30.3002ZM962.159 31.3445L961.165 31.4564L961.277 32.4501L962.27 32.3382L962.159 31.3445ZM959.774 10.1583L959.662 9.16461L958.668 9.27646L958.78 10.2702L959.774 10.1583ZM1011.1 8.45262L1010.85 9.41949L1010.86 9.42177L1010.87 9.42389L1011.1 8.45262ZM1030.62 17.6877L1030.02 18.482L1030.02 18.4882L1030.03 18.4943L1030.62 17.6877ZM1044.63 33.6502L1043.76 34.1347L1043.76 34.1428L1043.77 34.1509L1044.63 33.6502ZM1049.58 77.5689L1048.62 77.2785L1048.62 77.291L1049.58 77.5689ZM1022.64 109.572L1022.18 108.684L1022.18 108.686L1022.64 109.572ZM956.443 121.095L955.45 121.207L955.561 122.2L956.555 122.088L956.443 121.095ZM944.155 11.9163L944.043 10.9226L943.049 11.0344L943.161 12.0282L944.155 11.9163ZM968.434 9.18362L969.428 9.07177L969.316 8.07805L968.322 8.18989L968.434 9.18362ZM980.722 118.362L980.834 119.356L981.828 119.244L981.716 118.25L980.722 118.362ZM973.829 119.138L971.427 97.797L969.44 98.0207L971.842 119.362L973.829 119.138ZM970.545 98.9026L997.608 95.8566L997.384 93.8691L970.322 96.9151L970.545 98.9026ZM997.608 95.8566C1004.34 95.0992 1010.13 93.1162 1014.94 89.877L1013.82 88.2177C1009.32 91.2472 1003.85 93.1412 997.384 93.8691L997.608 95.8566ZM1014.95 89.8678C1019.76 86.5159 1023.27 82.0615 1025.45 76.528L1023.59 75.7941C1021.55 80.9674 1018.29 85.1039 1013.81 88.2268L1014.95 89.8678ZM1025.45 76.528C1027.63 70.9941 1028.31 64.6943 1027.51 57.658L1025.53 57.8817C1026.29 64.6602 1025.63 70.6212 1023.59 75.7941L1025.45 76.528ZM1027.51 57.658C1026.72 50.6167 1024.62 44.673 1021.16 39.8711L1019.53 41.0405C1022.75 45.5092 1024.76 51.1082 1025.53 57.8817L1027.51 57.658ZM1021.16 39.8842C1017.82 35.0781 1013.42 31.5694 1007.99 29.3731L1007.24 31.2272C1012.31 33.278 1016.4 36.5397 1019.52 41.0274L1021.16 39.8842ZM1008 29.3765C1002.66 27.1651 996.617 26.4598 989.883 27.2178L990.106 29.2052C996.568 28.4779 1002.27 29.165 1007.23 31.2239L1008 29.3765ZM989.883 27.2178L962.047 30.3508L962.27 32.3382L990.106 29.2052L989.883 27.2178ZM963.152 31.2327L960.768 10.0465L958.78 10.2702L961.165 31.4564L963.152 31.2327ZM959.886 11.1521L988.031 7.98424L987.807 5.99679L959.662 9.16461L959.886 11.1521ZM988.031 7.98424C996.169 7.06821 1003.77 7.55142 1010.85 9.41949L1011.36 7.48574C1004.02 5.54774 996.164 5.0562 987.807 5.99679L988.031 7.98424ZM1010.87 9.42389C1018.04 11.1809 1024.42 14.2013 1030.02 18.482L1031.23 16.8934C1025.4 12.4373 1018.77 9.30099 1011.34 7.48133L1010.87 9.42389ZM1030.03 18.4943C1035.72 22.6611 1040.29 27.8714 1043.76 34.1347L1045.51 33.1657C1041.9 26.6531 1037.14 21.2217 1031.21 16.8812L1030.03 18.4943ZM1043.77 34.1509C1047.32 40.2915 1049.55 47.3136 1050.44 55.234L1052.43 55.0103C1051.51 46.8478 1049.21 39.5552 1045.5 33.1494L1043.77 34.1509ZM1050.44 55.234C1051.32 63.0492 1050.71 70.3936 1048.62 77.2785L1050.53 77.8594C1052.71 70.692 1053.34 63.0719 1052.43 55.0103L1050.44 55.234ZM1048.62 77.291C1046.63 84.1733 1043.37 90.2667 1038.86 95.5818L1040.38 96.8767C1045.08 91.3404 1048.47 84.9936 1050.54 77.8468L1048.62 77.291ZM1038.86 95.5818C1034.34 100.902 1028.78 105.27 1022.18 108.684L1023.1 110.46C1029.92 106.935 1035.68 102.408 1040.38 96.8767L1038.86 95.5818ZM1022.18 108.686C1015.69 112.081 1008.44 114.236 1000.4 115.14L1000.63 117.128C1008.88 116.199 1016.38 113.979 1023.11 110.458L1022.18 108.686ZM1000.4 115.14L972.724 118.256L972.947 120.243L1000.63 117.128L1000.4 115.14ZM957.437 120.983L945.149 11.8045L943.161 12.0282L955.45 121.207L957.437 120.983ZM944.267 12.91L968.546 10.1773L968.322 8.18989L944.043 10.9226L944.267 12.91ZM967.44 9.29547L979.729 118.474L981.716 118.25L969.428 9.07177L967.44 9.29547ZM980.611 117.368L956.331 120.101L956.555 122.088L980.834 119.356L980.611 117.368Z" fill="white" fill-opacity="0.12" mask="url(#path-1-outside-1_2123_805)"/>
</svg>
