<svg width="500" height="500" viewBox="0 0 500 500" fill="none" xmlns="http://www.w3.org/2000/svg">
<rect width="500" height="500" fill="white"/>
<g clip-path="url(#clip0_0_4721)">
<path d="M154.83 223.851C155.905 218.485 152.419 213.266 147.043 212.193C141.667 211.119 136.438 214.599 135.363 219.965C134.288 225.33 137.774 230.55 143.149 231.623C148.525 232.696 153.755 229.216 154.83 223.851Z" fill="url(#paint0_linear_0_4721)"/>
<path d="M120.513 227.259L118.233 228.813C118.056 228.933 117.905 229.087 117.788 229.266C117.672 229.445 117.591 229.645 117.553 229.855C117.514 230.064 117.517 230.28 117.561 230.488C117.606 230.697 117.692 230.895 117.813 231.07L130.172 248.89C130.422 249.249 130.761 249.539 131.155 249.731C131.549 249.924 131.986 250.012 132.424 249.989L158.219 248.55C159.138 248.497 160.035 248.239 160.84 247.792C161.646 247.346 162.34 246.724 162.872 245.973C163.403 245.222 163.758 244.361 163.909 243.453C164.06 242.546 164.005 241.617 163.746 240.734C163.349 239.395 162.503 238.232 161.35 237.44C160.198 236.647 158.808 236.273 157.412 236.38L135.174 238.086L132.06 230.679C131.616 229.617 130.94 228.667 130.082 227.898C129.225 227.129 128.206 226.56 127.1 226.232C125.995 225.905 124.83 225.827 123.69 226.005C122.551 226.182 121.466 226.611 120.513 227.259Z" fill="url(#paint1_linear_0_4721)"/>
<path d="M157.478 285.601C159.419 280.484 156.837 274.765 151.71 272.827C146.583 270.89 140.853 273.467 138.912 278.584C136.97 283.701 139.553 289.42 144.679 291.358C149.806 293.296 155.536 290.718 157.478 285.601Z" fill="url(#paint2_linear_0_4721)"/>
<path d="M156.796 258.489L156.699 255.731C156.692 255.518 156.642 255.308 156.554 255.114C156.465 254.92 156.338 254.745 156.182 254.6C156.025 254.456 155.841 254.343 155.64 254.27C155.44 254.196 155.226 254.163 155.013 254.172L133.318 255.092C132.88 255.11 132.454 255.24 132.081 255.469C131.707 255.699 131.399 256.02 131.185 256.402L118.62 278.929C118.171 279.734 117.91 280.63 117.858 281.55C117.805 282.47 117.962 283.39 118.317 284.241C118.671 285.091 119.214 285.851 119.905 286.462C120.596 287.074 121.416 287.521 122.305 287.77C123.651 288.151 125.087 288.059 126.374 287.51C127.661 286.961 128.72 285.988 129.375 284.754L139.813 265.082L147.744 266.415C148.881 266.605 150.046 266.541 151.155 266.226C152.264 265.912 153.288 265.355 154.155 264.596C155.021 263.837 155.708 262.896 156.164 261.84C156.621 260.783 156.837 259.639 156.796 258.489Z" fill="url(#paint3_linear_0_4721)"/>
<path d="M104.68 256.926C105.725 251.555 102.208 246.355 96.8265 245.313C91.4448 244.271 86.2356 247.78 85.1914 253.152C84.1472 258.524 87.6636 263.723 93.0453 264.765C98.4271 265.807 103.636 262.298 104.68 256.926Z" fill="url(#paint4_linear_0_4721)"/>
<path d="M109.51 234.564L111.813 233.079C111.993 232.965 112.194 232.887 112.404 232.85C112.615 232.813 112.83 232.818 113.039 232.865C113.247 232.911 113.444 232.998 113.619 233.121C113.793 233.244 113.942 233.4 114.056 233.58L125.627 251.92C125.859 252.291 125.993 252.716 126.016 253.153C126.038 253.591 125.949 254.027 125.756 254.421L114.3 277.532C113.891 278.358 113.3 279.081 112.572 279.646C111.843 280.212 110.996 280.606 110.094 280.798C109.191 280.99 108.256 280.976 107.36 280.757C106.464 280.538 105.629 280.119 104.917 279.532C103.839 278.64 103.1 277.407 102.823 276.038C102.545 274.668 102.746 273.245 103.393 272.006L113.697 252.264L108.096 246.499C107.294 245.672 106.687 244.678 106.319 243.588C105.95 242.498 105.829 241.339 105.965 240.197C106.1 239.054 106.488 237.956 107.101 236.982C107.715 236.008 108.537 235.182 109.51 234.564Z" fill="url(#paint5_linear_0_4721)"/>
</g>
<path d="M173.747 261V230.52L173.147 225.72H181.787L202.187 247.08L204.527 250.32H205.187V225.72H213.107V261H205.487L184.607 239.28L182.267 236.46H181.667V261H173.747ZM224.038 261C221.358 261 219.358 260.46 218.038 259.38C216.758 258.3 216.118 256.54 216.118 254.1V241.8C216.118 241.2 216.158 240.48 216.238 239.64C216.358 238.76 216.638 237.9 217.078 237.06C217.558 236.22 218.338 235.52 219.418 234.96C220.538 234.4 222.078 234.12 224.038 234.12H240.598C242.598 234.12 244.138 234.4 245.218 234.96C246.298 235.52 247.058 236.22 247.498 237.06C247.978 237.9 248.258 238.76 248.338 239.64C248.458 240.48 248.518 241.2 248.518 241.8V253.32C248.518 254.04 248.458 254.84 248.338 255.72C248.258 256.6 247.978 257.44 247.498 258.24C247.018 259.04 246.238 259.7 245.158 260.22C244.078 260.74 242.558 261 240.598 261H224.038ZM226.318 255.84H238.318C240.278 255.84 241.258 255.04 241.258 253.44V241.68C241.258 240.08 240.278 239.28 238.318 239.28H226.318C224.398 239.28 223.438 240.08 223.438 241.68V253.44C223.438 255.04 224.398 255.84 226.318 255.84ZM259.656 261L247.296 234.12H255.696L262.596 250.68L264.156 255H264.756L266.316 250.68L273.336 234.12H281.496L280.536 237.78L269.256 261H259.656ZM287.455 261C284.415 261 282.215 260.3 280.855 258.9C279.495 257.46 278.815 255.5 278.815 253.02C278.815 250.42 279.515 248.42 280.915 247.02C282.355 245.62 284.535 244.92 287.455 244.92H290.515C293.515 244.92 296.215 245 298.615 245.16C301.015 245.32 302.995 245.48 304.555 245.64V241.68C304.555 241.32 304.515 240.96 304.435 240.6C304.355 240.2 304.115 239.88 303.715 239.64C303.315 239.4 302.635 239.28 301.675 239.28H298.675C294.315 239.28 290.675 239.36 287.755 239.52C284.835 239.64 282.855 239.76 281.815 239.88L281.155 235.32C281.155 234.76 282.675 234.42 285.715 234.3C288.755 234.18 293.835 234.12 300.955 234.12H303.955C305.955 234.12 307.495 234.4 308.575 234.96C309.655 235.52 310.415 236.22 310.855 237.06C311.335 237.9 311.615 238.76 311.695 239.64C311.815 240.48 311.875 241.2 311.875 241.8V261H306.955L304.615 259.8C302.935 260.08 300.915 260.36 298.555 260.64C296.195 260.88 293.495 261 290.455 261H287.455ZM289.015 255.84H302.755C303.635 255.84 304.155 255.76 304.315 255.6C304.475 255.44 304.555 254.94 304.555 254.1V249.48H289.015C287.935 249.48 287.175 249.74 286.735 250.26C286.335 250.78 286.135 251.6 286.135 252.72C286.135 253.84 286.375 254.64 286.855 255.12C287.335 255.6 288.055 255.84 289.015 255.84ZM323.581 261V225.72H331.501V240.36H355.021V225.72H362.941V261H355.021V246.12H331.501V261H323.581ZM406.105 261.6C404.505 261.6 402.925 261.36 401.365 260.88C399.845 260.36 398.105 259.12 396.145 257.16L391.825 252.84C390.065 251.04 388.125 249.72 386.005 248.88C383.925 248.04 381.305 247.62 378.145 247.62H376.285V261H368.365V230.52L367.765 225.66H394.345C396.905 225.66 398.905 226 400.345 226.68C401.825 227.36 402.905 228.26 403.585 229.38C404.305 230.46 404.765 231.62 404.965 232.86C405.165 234.1 405.265 235.28 405.265 236.4V237.54C405.265 238.42 405.145 239.4 404.905 240.48C404.665 241.56 404.205 242.62 403.525 243.66C402.845 244.7 401.865 245.58 400.585 246.3C399.345 247.02 397.705 247.44 395.665 247.56C396.185 247.84 396.845 248.28 397.645 248.88C398.445 249.44 399.265 250.06 400.105 250.74C400.985 251.42 401.785 252.04 402.505 252.6C403.225 253.16 403.785 253.56 404.185 253.8C405.625 254.64 406.905 255.22 408.025 255.54C409.145 255.86 410.065 256.04 410.785 256.08C411.505 256.12 411.925 256.14 412.045 256.14L410.845 261C410.485 261.12 409.885 261.24 409.045 261.36C408.205 261.52 407.225 261.6 406.105 261.6ZM385.285 242.16C386.805 242.16 388.165 242.14 389.365 242.1C390.565 242.02 391.645 241.94 392.605 241.86C394.365 241.66 395.585 241.18 396.265 240.42C396.985 239.62 397.345 238.6 397.345 237.36V235.98C397.345 234.7 397.005 233.62 396.325 232.74C395.645 231.86 394.425 231.42 392.665 231.42H376.285V241.86C378.045 241.98 379.665 242.06 381.145 242.1C382.625 242.14 384.005 242.16 385.285 242.16Z" fill="url(#paint6_linear_0_4721)"/>
<path d="M173.501 282V268.196C173.881 268.12 174.28 268.051 174.698 267.987C175.116 267.924 175.553 267.877 176.009 267.845C176.471 267.807 176.95 267.788 177.444 267.788C179.35 267.788 180.772 268.133 181.709 268.823C182.653 269.514 183.125 270.594 183.125 272.063C183.125 273.013 182.897 273.811 182.441 274.457C181.991 275.097 181.332 275.581 180.465 275.91C179.603 276.233 178.546 276.395 177.292 276.395C176.937 276.395 176.62 276.389 176.342 276.376C176.063 276.357 175.778 276.338 175.487 276.319V282H173.501ZM181.975 282L177.149 275.426H179.363L184.236 282H181.975ZM177.32 274.827C178.675 274.827 179.663 274.606 180.284 274.162C180.905 273.713 181.215 273.016 181.215 272.072C181.215 271.426 181.088 270.904 180.835 270.505C180.582 270.1 180.189 269.805 179.657 269.621C179.131 269.431 178.451 269.336 177.615 269.336C177.184 269.336 176.801 269.352 176.465 269.384C176.136 269.416 175.81 269.46 175.487 269.517V274.742C175.708 274.761 175.911 274.78 176.095 274.799C176.285 274.812 176.475 274.821 176.665 274.827C176.861 274.827 177.079 274.827 177.32 274.827ZM184.983 282V270.695H192.935V272.215H186.95V280.48H193.011V282H184.983ZM186.199 276.984V275.464H192.127V276.984H186.199ZM197.372 282.105C196.885 282.105 196.375 282.089 195.843 282.057C195.317 282.032 194.795 281.99 194.275 281.933V270.913C194.624 270.844 194.991 270.784 195.377 270.733C195.77 270.682 196.166 270.644 196.565 270.619C196.97 270.587 197.36 270.571 197.733 270.571C199.83 270.571 201.41 271.043 202.474 271.987C203.538 272.924 204.07 274.381 204.07 276.357C204.07 277.693 203.82 278.786 203.319 279.634C202.819 280.477 202.072 281.101 201.077 281.506C200.089 281.905 198.854 282.105 197.372 282.105ZM197.838 280.518C198.769 280.518 199.545 280.379 200.165 280.1C200.786 279.815 201.251 279.368 201.562 278.76C201.872 278.146 202.027 277.342 202.027 276.347C202.027 275.359 201.872 274.558 201.562 273.944C201.258 273.323 200.799 272.87 200.184 272.585C199.57 272.294 198.804 272.148 197.885 272.148C197.619 272.148 197.341 272.161 197.049 272.187C196.764 272.212 196.508 272.247 196.28 272.291V280.442C196.533 280.474 196.786 280.496 197.04 280.508C197.299 280.515 197.565 280.518 197.838 280.518ZM205.479 282V270.695H213.43V272.215H207.445V280.48H213.506V282H205.479ZM206.695 276.984V275.464H212.623V276.984H206.695ZM214.771 282V270.695H222.675V272.253H216.775V282H214.771ZM216.091 277.203V275.644H221.867V277.203H216.091ZM223.692 282V270.695H225.696V282H223.692ZM227.789 282V270.695H229.784L236.073 279.634H235.712V270.695H237.583V282H235.579L229.299 273.06H229.651V282H227.789ZM239.679 282V270.695H241.683V282H239.679ZM243.775 282V270.695H245.77L252.059 279.634H251.698V270.695H253.57V282H251.565L245.286 273.06H245.637V282H243.775ZM261.546 282.114C260.095 282.114 258.886 281.908 257.917 281.496C256.948 281.085 256.216 280.458 255.722 279.615C255.235 278.767 254.991 277.684 254.991 276.366C254.991 275.049 255.241 273.963 255.741 273.108C256.248 272.247 256.976 271.607 257.926 271.189C258.876 270.765 260.023 270.552 261.365 270.552C261.84 270.552 262.306 270.578 262.762 270.628C263.224 270.679 263.658 270.755 264.063 270.856V272.481C263.626 272.367 263.199 272.285 262.781 272.234C262.363 272.183 261.942 272.158 261.517 272.158C260.555 272.158 259.744 272.3 259.085 272.585C258.427 272.864 257.926 273.314 257.584 273.934C257.249 274.549 257.081 275.366 257.081 276.385C257.081 277.354 257.239 278.143 257.556 278.751C257.879 279.359 258.357 279.809 258.99 280.1C259.63 280.385 260.425 280.527 261.375 280.527C261.704 280.527 262.04 280.515 262.382 280.489C262.73 280.458 263.044 280.417 263.322 280.366L262.496 281.097V276.509H264.367V281.876C263.88 281.952 263.398 282.01 262.923 282.048C262.448 282.092 261.989 282.114 261.546 282.114ZM269.963 282V267.94H271.977V273.896H278.903V267.94H280.926V282H278.903V275.692H271.977V282H269.963ZM287.706 282.143C286.611 282.143 285.711 281.972 285.008 281.629C284.305 281.287 283.783 280.774 283.441 280.09C283.105 279.406 282.937 278.542 282.937 277.497V270.695H284.942V277.677C284.942 278.665 285.167 279.391 285.616 279.853C286.066 280.309 286.763 280.537 287.706 280.537C288.663 280.537 289.362 280.309 289.806 279.853C290.255 279.391 290.48 278.665 290.48 277.677V270.695H292.437V277.497C292.437 278.542 292.269 279.406 291.934 280.09C291.604 280.774 291.088 281.287 290.385 281.629C289.689 281.972 288.796 282.143 287.706 282.143ZM294.505 282V270.695H296.889L300.822 278.779H300.518L304.385 270.695H306.769V282H304.917V272.386H305.344L301.468 280.394H299.806L295.835 272.395H296.357V282H294.505ZM307.626 282L311.701 270.695H314.599L318.684 282H316.689L313.012 271.521H313.259L309.592 282H307.626ZM310.105 278.703L310.542 277.174H315.748L316.185 278.703H310.105ZM319.508 282V270.695H321.503L327.792 279.634H327.431V270.695H329.303V282H327.298L321.019 273.06H321.37V282H319.508ZM335.105 282V268.196C335.485 268.12 335.884 268.051 336.302 267.987C336.72 267.924 337.157 267.877 337.613 267.845C338.075 267.807 338.553 267.788 339.047 267.788C340.954 267.788 342.376 268.133 343.313 268.823C344.257 269.514 344.728 270.594 344.728 272.063C344.728 273.013 344.5 273.811 344.044 274.457C343.595 275.097 342.936 275.581 342.068 275.91C341.207 276.233 340.149 276.395 338.895 276.395C338.541 276.395 338.224 276.389 337.945 276.376C337.667 276.357 337.382 276.338 337.09 276.319V282H335.105ZM343.579 282L338.753 275.426H340.966L345.84 282H343.579ZM338.924 274.827C340.279 274.827 341.267 274.606 341.888 274.162C342.509 273.713 342.819 273.016 342.819 272.072C342.819 271.426 342.692 270.904 342.439 270.505C342.186 270.1 341.793 269.805 341.261 269.621C340.735 269.431 340.054 269.336 339.218 269.336C338.788 269.336 338.405 269.352 338.069 269.384C337.74 269.416 337.413 269.46 337.09 269.517V274.742C337.312 274.761 337.515 274.78 337.698 274.799C337.888 274.812 338.078 274.821 338.268 274.827C338.465 274.827 338.683 274.827 338.924 274.827ZM346.587 282V270.695H354.538V272.215H348.553V280.48H354.614V282H346.587ZM347.803 276.984V275.464H353.731V276.984H347.803ZM358.416 282.143C357.884 282.143 357.342 282.101 356.791 282.019C356.24 281.943 355.73 281.835 355.262 281.696V280.09C355.616 280.198 355.977 280.287 356.345 280.356C356.712 280.426 357.07 280.48 357.418 280.518C357.773 280.556 358.105 280.575 358.416 280.575C359.036 280.575 359.54 280.508 359.926 280.375C360.313 280.242 360.591 280.052 360.762 279.805C360.94 279.558 361.028 279.258 361.028 278.903C361.028 278.605 360.968 278.352 360.848 278.143C360.727 277.934 360.515 277.753 360.211 277.601C359.914 277.449 359.496 277.31 358.957 277.183L358.283 277.041C357.143 276.794 356.313 276.414 355.794 275.901C355.274 275.388 355.015 274.707 355.015 273.858C355.015 273.206 355.179 272.633 355.509 272.139C355.844 271.639 356.361 271.249 357.057 270.97C357.754 270.692 358.644 270.552 359.727 270.552C360.195 270.552 360.664 270.581 361.133 270.638C361.601 270.689 362.026 270.765 362.406 270.866V272.462C361.981 272.348 361.548 272.262 361.104 272.205C360.661 272.148 360.214 272.12 359.765 272.12C359.081 272.12 358.536 272.186 358.131 272.319C357.725 272.452 357.431 272.642 357.247 272.889C357.07 273.13 356.981 273.418 356.981 273.754C356.981 274.204 357.117 274.555 357.39 274.808C357.662 275.055 358.185 275.271 358.957 275.454L359.632 275.597C360.423 275.768 361.063 275.993 361.551 276.271C362.045 276.55 362.406 276.895 362.634 277.307C362.868 277.719 362.985 278.213 362.985 278.789C362.985 279.467 362.814 280.056 362.472 280.556C362.13 281.056 361.62 281.446 360.943 281.724C360.265 282.003 359.423 282.143 358.416 282.143ZM368.862 282.143C367.791 282.143 366.857 281.937 366.059 281.525C365.261 281.113 364.64 280.48 364.197 279.625C363.754 278.77 363.532 277.681 363.532 276.357C363.532 275.027 363.754 273.934 364.197 273.079C364.64 272.218 365.261 271.582 366.059 271.17C366.863 270.758 367.798 270.552 368.862 270.552C369.938 270.552 370.876 270.758 371.674 271.17C372.478 271.582 373.099 272.218 373.536 273.079C373.979 273.934 374.201 275.027 374.201 276.357C374.201 277.681 373.979 278.77 373.536 279.625C373.092 280.48 372.468 281.113 371.664 281.525C370.866 281.937 369.932 282.143 368.862 282.143ZM368.862 280.565C369.539 280.565 370.125 280.429 370.619 280.157C371.113 279.878 371.493 279.435 371.759 278.827C372.025 278.213 372.158 277.402 372.158 276.395C372.158 275.356 372.022 274.523 371.75 273.896C371.484 273.269 371.104 272.82 370.61 272.547C370.116 272.269 369.533 272.129 368.862 272.129C368.197 272.129 367.617 272.266 367.123 272.538C366.635 272.81 366.259 273.254 365.993 273.868C365.727 274.482 365.594 275.293 365.594 276.3C365.594 277.345 365.723 278.181 365.983 278.808C366.249 279.429 366.626 279.878 367.114 280.157C367.608 280.429 368.19 280.565 368.862 280.565ZM380.316 282.143C379.221 282.143 378.321 281.972 377.618 281.629C376.915 281.287 376.393 280.774 376.051 280.09C375.715 279.406 375.547 278.542 375.547 277.497V270.695H377.552V277.677C377.552 278.665 377.777 279.391 378.226 279.853C378.676 280.309 379.373 280.537 380.316 280.537C381.273 280.537 381.973 280.309 382.416 279.853C382.866 279.391 383.09 278.665 383.09 277.677V270.695H385.047V277.497C385.047 278.542 384.88 279.406 384.544 280.09C384.215 280.774 383.698 281.287 382.995 281.629C382.299 281.972 381.406 282.143 380.316 282.143ZM387.077 282V270.913C387.577 270.818 388.122 270.736 388.711 270.666C389.306 270.597 389.924 270.562 390.564 270.562C392.223 270.562 393.464 270.85 394.288 271.426C395.111 271.996 395.523 272.88 395.523 274.077C395.523 274.856 395.326 275.508 394.934 276.034C394.541 276.553 393.968 276.946 393.214 277.212C392.467 277.478 391.564 277.611 390.507 277.611C390.253 277.611 390.006 277.608 389.766 277.601C389.525 277.589 389.287 277.573 389.053 277.554V282H387.077ZM394.24 282L390.241 276.737H392.416L396.482 282H394.24ZM390.516 276.176C391.605 276.176 392.397 276.005 392.891 275.663C393.385 275.321 393.632 274.796 393.632 274.086C393.632 273.345 393.401 272.813 392.939 272.49C392.476 272.161 391.738 271.996 390.725 271.996C390.402 271.996 390.108 272.009 389.842 272.034C389.576 272.053 389.313 272.085 389.053 272.129V276.119C389.332 276.138 389.572 276.154 389.775 276.167C389.978 276.173 390.225 276.176 390.516 276.176ZM402.178 282.143C400.956 282.143 399.908 281.949 399.034 281.563C398.16 281.177 397.485 280.559 397.01 279.71C396.541 278.862 396.307 277.747 396.307 276.366C396.307 275.049 396.541 273.96 397.01 273.098C397.485 272.237 398.169 271.597 399.062 271.179C399.961 270.761 401.044 270.552 402.311 270.552C402.761 270.552 403.201 270.578 403.632 270.628C404.069 270.673 404.487 270.746 404.886 270.847V272.471C404.487 272.37 404.084 272.297 403.679 272.253C403.28 272.202 402.868 272.177 402.444 272.177C401.557 272.177 400.813 272.316 400.212 272.595C399.616 272.867 399.167 273.311 398.863 273.925C398.565 274.533 398.416 275.34 398.416 276.347C398.416 277.386 398.565 278.209 398.863 278.817C399.167 279.425 399.61 279.862 400.193 280.128C400.782 280.388 401.5 280.518 402.349 280.518C402.78 280.518 403.201 280.486 403.613 280.423C404.024 280.36 404.449 280.261 404.886 280.128V281.753C404.499 281.873 404.072 281.968 403.603 282.038C403.141 282.108 402.666 282.143 402.178 282.143ZM405.866 282V270.695H413.817V272.215H407.832V280.48H413.893V282H405.866ZM407.082 276.984V275.464H413.01V276.984H407.082Z" fill="#9C9C9C"/>
<path d="M173.501 282V268.196C173.881 268.12 174.28 268.051 174.698 267.987C175.116 267.924 175.553 267.877 176.009 267.845C176.471 267.807 176.95 267.788 177.444 267.788C179.35 267.788 180.772 268.133 181.709 268.823C182.653 269.514 183.125 270.594 183.125 272.063C183.125 273.013 182.897 273.811 182.441 274.457C181.991 275.097 181.332 275.581 180.465 275.91C179.603 276.233 178.546 276.395 177.292 276.395C176.937 276.395 176.62 276.389 176.342 276.376C176.063 276.357 175.778 276.338 175.487 276.319V282H173.501ZM181.975 282L177.149 275.426H179.363L184.236 282H181.975ZM177.32 274.827C178.675 274.827 179.663 274.606 180.284 274.162C180.905 273.713 181.215 273.016 181.215 272.072C181.215 271.426 181.088 270.904 180.835 270.505C180.582 270.1 180.189 269.805 179.657 269.621C179.131 269.431 178.451 269.336 177.615 269.336C177.184 269.336 176.801 269.352 176.465 269.384C176.136 269.416 175.81 269.46 175.487 269.517V274.742C175.708 274.761 175.911 274.78 176.095 274.799C176.285 274.812 176.475 274.821 176.665 274.827C176.861 274.827 177.079 274.827 177.32 274.827ZM184.983 282V270.695H192.935V272.215H186.95V280.48H193.011V282H184.983ZM186.199 276.984V275.464H192.127V276.984H186.199ZM197.372 282.105C196.885 282.105 196.375 282.089 195.843 282.057C195.317 282.032 194.795 281.99 194.275 281.933V270.913C194.624 270.844 194.991 270.784 195.377 270.733C195.77 270.682 196.166 270.644 196.565 270.619C196.97 270.587 197.36 270.571 197.733 270.571C199.83 270.571 201.41 271.043 202.474 271.987C203.538 272.924 204.07 274.381 204.07 276.357C204.07 277.693 203.82 278.786 203.319 279.634C202.819 280.477 202.072 281.101 201.077 281.506C200.089 281.905 198.854 282.105 197.372 282.105ZM197.838 280.518C198.769 280.518 199.545 280.379 200.165 280.1C200.786 279.815 201.251 279.368 201.562 278.76C201.872 278.146 202.027 277.342 202.027 276.347C202.027 275.359 201.872 274.558 201.562 273.944C201.258 273.323 200.799 272.87 200.184 272.585C199.57 272.294 198.804 272.148 197.885 272.148C197.619 272.148 197.341 272.161 197.049 272.187C196.764 272.212 196.508 272.247 196.28 272.291V280.442C196.533 280.474 196.786 280.496 197.04 280.508C197.299 280.515 197.565 280.518 197.838 280.518ZM205.479 282V270.695H213.43V272.215H207.445V280.48H213.506V282H205.479ZM206.695 276.984V275.464H212.623V276.984H206.695ZM214.771 282V270.695H222.675V272.253H216.775V282H214.771ZM216.091 277.203V275.644H221.867V277.203H216.091ZM223.692 282V270.695H225.696V282H223.692ZM227.789 282V270.695H229.784L236.073 279.634H235.712V270.695H237.583V282H235.579L229.299 273.06H229.651V282H227.789ZM239.679 282V270.695H241.683V282H239.679ZM243.775 282V270.695H245.77L252.059 279.634H251.698V270.695H253.57V282H251.565L245.286 273.06H245.637V282H243.775ZM261.546 282.114C260.095 282.114 258.886 281.908 257.917 281.496C256.948 281.085 256.216 280.458 255.722 279.615C255.235 278.767 254.991 277.684 254.991 276.366C254.991 275.049 255.241 273.963 255.741 273.108C256.248 272.247 256.976 271.607 257.926 271.189C258.876 270.765 260.023 270.552 261.365 270.552C261.84 270.552 262.306 270.578 262.762 270.628C263.224 270.679 263.658 270.755 264.063 270.856V272.481C263.626 272.367 263.199 272.285 262.781 272.234C262.363 272.183 261.942 272.158 261.517 272.158C260.555 272.158 259.744 272.3 259.085 272.585C258.427 272.864 257.926 273.314 257.584 273.934C257.249 274.549 257.081 275.366 257.081 276.385C257.081 277.354 257.239 278.143 257.556 278.751C257.879 279.359 258.357 279.809 258.99 280.1C259.63 280.385 260.425 280.527 261.375 280.527C261.704 280.527 262.04 280.515 262.382 280.489C262.73 280.458 263.044 280.417 263.322 280.366L262.496 281.097V276.509H264.367V281.876C263.88 281.952 263.398 282.01 262.923 282.048C262.448 282.092 261.989 282.114 261.546 282.114ZM269.963 282V267.94H271.977V273.896H278.903V267.94H280.926V282H278.903V275.692H271.977V282H269.963ZM287.706 282.143C286.611 282.143 285.711 281.972 285.008 281.629C284.305 281.287 283.783 280.774 283.441 280.09C283.105 279.406 282.937 278.542 282.937 277.497V270.695H284.942V277.677C284.942 278.665 285.167 279.391 285.616 279.853C286.066 280.309 286.763 280.537 287.706 280.537C288.663 280.537 289.362 280.309 289.806 279.853C290.255 279.391 290.48 278.665 290.48 277.677V270.695H292.437V277.497C292.437 278.542 292.269 279.406 291.934 280.09C291.604 280.774 291.088 281.287 290.385 281.629C289.689 281.972 288.796 282.143 287.706 282.143ZM294.505 282V270.695H296.889L300.822 278.779H300.518L304.385 270.695H306.769V282H304.917V272.386H305.344L301.468 280.394H299.806L295.835 272.395H296.357V282H294.505ZM307.626 282L311.701 270.695H314.599L318.684 282H316.689L313.012 271.521H313.259L309.592 282H307.626ZM310.105 278.703L310.542 277.174H315.748L316.185 278.703H310.105ZM319.508 282V270.695H321.503L327.792 279.634H327.431V270.695H329.303V282H327.298L321.019 273.06H321.37V282H319.508ZM335.105 282V268.196C335.485 268.12 335.884 268.051 336.302 267.987C336.72 267.924 337.157 267.877 337.613 267.845C338.075 267.807 338.553 267.788 339.047 267.788C340.954 267.788 342.376 268.133 343.313 268.823C344.257 269.514 344.728 270.594 344.728 272.063C344.728 273.013 344.5 273.811 344.044 274.457C343.595 275.097 342.936 275.581 342.068 275.91C341.207 276.233 340.149 276.395 338.895 276.395C338.541 276.395 338.224 276.389 337.945 276.376C337.667 276.357 337.382 276.338 337.09 276.319V282H335.105ZM343.579 282L338.753 275.426H340.966L345.84 282H343.579ZM338.924 274.827C340.279 274.827 341.267 274.606 341.888 274.162C342.509 273.713 342.819 273.016 342.819 272.072C342.819 271.426 342.692 270.904 342.439 270.505C342.186 270.1 341.793 269.805 341.261 269.621C340.735 269.431 340.054 269.336 339.218 269.336C338.788 269.336 338.405 269.352 338.069 269.384C337.74 269.416 337.413 269.46 337.09 269.517V274.742C337.312 274.761 337.515 274.78 337.698 274.799C337.888 274.812 338.078 274.821 338.268 274.827C338.465 274.827 338.683 274.827 338.924 274.827ZM346.587 282V270.695H354.538V272.215H348.553V280.48H354.614V282H346.587ZM347.803 276.984V275.464H353.731V276.984H347.803ZM358.416 282.143C357.884 282.143 357.342 282.101 356.791 282.019C356.24 281.943 355.73 281.835 355.262 281.696V280.09C355.616 280.198 355.977 280.287 356.345 280.356C356.712 280.426 357.07 280.48 357.418 280.518C357.773 280.556 358.105 280.575 358.416 280.575C359.036 280.575 359.54 280.508 359.926 280.375C360.313 280.242 360.591 280.052 360.762 279.805C360.94 279.558 361.028 279.258 361.028 278.903C361.028 278.605 360.968 278.352 360.848 278.143C360.727 277.934 360.515 277.753 360.211 277.601C359.914 277.449 359.496 277.31 358.957 277.183L358.283 277.041C357.143 276.794 356.313 276.414 355.794 275.901C355.274 275.388 355.015 274.707 355.015 273.858C355.015 273.206 355.179 272.633 355.509 272.139C355.844 271.639 356.361 271.249 357.057 270.97C357.754 270.692 358.644 270.552 359.727 270.552C360.195 270.552 360.664 270.581 361.133 270.638C361.601 270.689 362.026 270.765 362.406 270.866V272.462C361.981 272.348 361.548 272.262 361.104 272.205C360.661 272.148 360.214 272.12 359.765 272.12C359.081 272.12 358.536 272.186 358.131 272.319C357.725 272.452 357.431 272.642 357.247 272.889C357.07 273.13 356.981 273.418 356.981 273.754C356.981 274.204 357.117 274.555 357.39 274.808C357.662 275.055 358.185 275.271 358.957 275.454L359.632 275.597C360.423 275.768 361.063 275.993 361.551 276.271C362.045 276.55 362.406 276.895 362.634 277.307C362.868 277.719 362.985 278.213 362.985 278.789C362.985 279.467 362.814 280.056 362.472 280.556C362.13 281.056 361.62 281.446 360.943 281.724C360.265 282.003 359.423 282.143 358.416 282.143ZM368.862 282.143C367.791 282.143 366.857 281.937 366.059 281.525C365.261 281.113 364.64 280.48 364.197 279.625C363.754 278.77 363.532 277.681 363.532 276.357C363.532 275.027 363.754 273.934 364.197 273.079C364.64 272.218 365.261 271.582 366.059 271.17C366.863 270.758 367.798 270.552 368.862 270.552C369.938 270.552 370.876 270.758 371.674 271.17C372.478 271.582 373.099 272.218 373.536 273.079C373.979 273.934 374.201 275.027 374.201 276.357C374.201 277.681 373.979 278.77 373.536 279.625C373.092 280.48 372.468 281.113 371.664 281.525C370.866 281.937 369.932 282.143 368.862 282.143ZM368.862 280.565C369.539 280.565 370.125 280.429 370.619 280.157C371.113 279.878 371.493 279.435 371.759 278.827C372.025 278.213 372.158 277.402 372.158 276.395C372.158 275.356 372.022 274.523 371.75 273.896C371.484 273.269 371.104 272.82 370.61 272.547C370.116 272.269 369.533 272.129 368.862 272.129C368.197 272.129 367.617 272.266 367.123 272.538C366.635 272.81 366.259 273.254 365.993 273.868C365.727 274.482 365.594 275.293 365.594 276.3C365.594 277.345 365.723 278.181 365.983 278.808C366.249 279.429 366.626 279.878 367.114 280.157C367.608 280.429 368.19 280.565 368.862 280.565ZM380.316 282.143C379.221 282.143 378.321 281.972 377.618 281.629C376.915 281.287 376.393 280.774 376.051 280.09C375.715 279.406 375.547 278.542 375.547 277.497V270.695H377.552V277.677C377.552 278.665 377.777 279.391 378.226 279.853C378.676 280.309 379.373 280.537 380.316 280.537C381.273 280.537 381.973 280.309 382.416 279.853C382.866 279.391 383.09 278.665 383.09 277.677V270.695H385.047V277.497C385.047 278.542 384.88 279.406 384.544 280.09C384.215 280.774 383.698 281.287 382.995 281.629C382.299 281.972 381.406 282.143 380.316 282.143ZM387.077 282V270.913C387.577 270.818 388.122 270.736 388.711 270.666C389.306 270.597 389.924 270.562 390.564 270.562C392.223 270.562 393.464 270.85 394.288 271.426C395.111 271.996 395.523 272.88 395.523 274.077C395.523 274.856 395.326 275.508 394.934 276.034C394.541 276.553 393.968 276.946 393.214 277.212C392.467 277.478 391.564 277.611 390.507 277.611C390.253 277.611 390.006 277.608 389.766 277.601C389.525 277.589 389.287 277.573 389.053 277.554V282H387.077ZM394.24 282L390.241 276.737H392.416L396.482 282H394.24ZM390.516 276.176C391.605 276.176 392.397 276.005 392.891 275.663C393.385 275.321 393.632 274.796 393.632 274.086C393.632 273.345 393.401 272.813 392.939 272.49C392.476 272.161 391.738 271.996 390.725 271.996C390.402 271.996 390.108 272.009 389.842 272.034C389.576 272.053 389.313 272.085 389.053 272.129V276.119C389.332 276.138 389.572 276.154 389.775 276.167C389.978 276.173 390.225 276.176 390.516 276.176ZM402.178 282.143C400.956 282.143 399.908 281.949 399.034 281.563C398.16 281.177 397.485 280.559 397.01 279.71C396.541 278.862 396.307 277.747 396.307 276.366C396.307 275.049 396.541 273.96 397.01 273.098C397.485 272.237 398.169 271.597 399.062 271.179C399.961 270.761 401.044 270.552 402.311 270.552C402.761 270.552 403.201 270.578 403.632 270.628C404.069 270.673 404.487 270.746 404.886 270.847V272.471C404.487 272.37 404.084 272.297 403.679 272.253C403.28 272.202 402.868 272.177 402.444 272.177C401.557 272.177 400.813 272.316 400.212 272.595C399.616 272.867 399.167 273.311 398.863 273.925C398.565 274.533 398.416 275.34 398.416 276.347C398.416 277.386 398.565 278.209 398.863 278.817C399.167 279.425 399.61 279.862 400.193 280.128C400.782 280.388 401.5 280.518 402.349 280.518C402.78 280.518 403.201 280.486 403.613 280.423C404.024 280.36 404.449 280.261 404.886 280.128V281.753C404.499 281.873 404.072 281.968 403.603 282.038C403.141 282.108 402.666 282.143 402.178 282.143ZM405.866 282V270.695H413.817V272.215H407.832V280.48H413.893V282H405.866ZM407.082 276.984V275.464H413.01V276.984H407.082Z" fill="#9C9C9C"/>
<defs>
<linearGradient id="paint0_linear_0_4721" x1="136.057" y1="201.609" x2="165.705" y2="268.446" gradientUnits="userSpaceOnUse">
<stop stop-color="#00AEF1"/>
<stop offset="0.15" stop-color="#04A5E9"/>
<stop offset="1" stop-color="#1C76BD"/>
</linearGradient>
<linearGradient id="paint1_linear_0_4721" x1="127.261" y1="205.513" x2="151.72" y2="260.648" gradientUnits="userSpaceOnUse">
<stop stop-color="#00AEF1"/>
<stop offset="1" stop-color="#1C76BD"/>
</linearGradient>
<linearGradient id="paint2_linear_0_4721" x1="154.437" y1="271.408" x2="132.679" y2="307.814" gradientUnits="userSpaceOnUse">
<stop stop-color="#74B198"/>
<stop offset="1" stop-color="#1F7973"/>
</linearGradient>
<linearGradient id="paint3_linear_0_4721" x1="149.011" y1="250.283" x2="125.369" y2="289.851" gradientUnits="userSpaceOnUse">
<stop stop-color="#74B198"/>
<stop offset="1" stop-color="#1F7973"/>
</linearGradient>
<linearGradient id="paint4_linear_0_4721" x1="98.1327" y1="246.95" x2="79.168" y2="288.692" gradientUnits="userSpaceOnUse">
<stop stop-color="#FCB23F"/>
<stop offset="1" stop-color="#F25C2C"/>
</linearGradient>
<linearGradient id="paint5_linear_0_4721" x1="120.697" y1="236.303" x2="101.607" y2="278.253" gradientUnits="userSpaceOnUse">
<stop stop-color="#FCB23F"/>
<stop offset="1" stop-color="#F25C2C"/>
</linearGradient>
<linearGradient id="paint6_linear_0_4721" x1="168" y1="243" x2="413" y2="243" gradientUnits="userSpaceOnUse">
<stop stop-color="#2C8178"/>
<stop offset="1" stop-color="#74B198"/>
</linearGradient>
<clipPath id="clip0_0_4721">
<rect width="79" height="80" fill="white" transform="translate(85 212)"/>
</clipPath>
</defs>
</svg>
