<svg width="30" height="31" viewBox="0 0 30 31" fill="none" xmlns="http://www.w3.org/2000/svg">
<g clip-path="url(#clip0_1117_288)">
<path d="M26.519 4.50234C26.9273 2.46398 25.6034 0.481081 23.562 0.0734069C21.5206 -0.334268 19.5347 0.987662 19.1265 3.02602C18.7182 5.06438 20.0421 7.04728 22.0835 7.45496C24.1249 7.86263 26.1107 6.5407 26.519 4.50234Z" fill="url(#paint0_linear_1117_288)"/>
<path d="M13.4869 5.79702L12.6211 6.38737C12.554 6.43307 12.4967 6.49156 12.4524 6.55947C12.4081 6.62739 12.3776 6.70338 12.3628 6.78309C12.3481 6.86279 12.3492 6.94463 12.3662 7.02389C12.3832 7.10315 12.4157 7.17827 12.4619 7.24493L17.1549 14.0147C17.2501 14.1512 17.3786 14.2613 17.5283 14.3343C17.678 14.4074 17.8439 14.441 18.0103 14.4321L27.8056 13.8854C28.155 13.8656 28.4953 13.7672 28.8012 13.5977C29.1072 13.4282 29.3709 13.192 29.5727 12.9066C29.7744 12.6211 29.9091 12.2939 29.9666 11.9493C30.024 11.6047 30.0029 11.2515 29.9046 10.9162C29.7537 10.4074 29.4326 9.96564 28.9949 9.66464C28.5573 9.36364 28.0294 9.2216 27.4995 9.26223L19.0545 9.91021L17.8721 7.09648C17.7034 6.69294 17.4468 6.33196 17.121 6.03973C16.7953 5.7475 16.4084 5.53133 15.9886 5.40692C15.5687 5.28251 15.1264 5.25297 14.6937 5.32044C14.261 5.38792 13.8488 5.55071 13.4869 5.79702Z" fill="url(#paint1_linear_1117_288)"/>
<path d="M27.5229 27.9603C28.2602 26.0163 27.2795 23.8436 25.3326 23.1074C23.3857 22.3713 21.2098 23.3505 20.4726 25.2945C19.7353 27.2385 20.716 29.4112 22.6629 30.1473C24.6098 30.8835 26.7857 29.9043 27.5229 27.9603Z" fill="url(#paint2_linear_1117_288)"/>
<path d="M27.2635 17.6621L27.2267 16.6141C27.224 16.5332 27.2053 16.4535 27.1716 16.3798C27.1379 16.3061 27.0898 16.2398 27.0303 16.1848C26.9708 16.1297 26.9009 16.087 26.8247 16.0591C26.7486 16.0311 26.6676 16.0186 26.5865 16.0221L18.348 16.3714C18.1816 16.3783 18.0198 16.4278 17.8781 16.5149C17.7363 16.602 17.6192 16.724 17.5381 16.8691L12.7664 25.4274C12.5958 25.7332 12.4968 26.0736 12.4769 26.4231C12.457 26.7725 12.5165 27.122 12.6512 27.4452C12.7858 27.7684 12.9921 28.0569 13.2544 28.2891C13.5167 28.5214 13.8282 28.6912 14.1657 28.786C14.677 28.9305 15.2224 28.8956 15.711 28.6871C16.1996 28.4786 16.6019 28.1091 16.8507 27.6403L20.8143 20.1667L23.8263 20.6732C24.258 20.7455 24.7004 20.721 25.1214 20.6015C25.5425 20.482 25.9316 20.2704 26.2606 19.9822C26.5896 19.6939 26.8503 19.3362 27.0238 18.9349C27.1972 18.5337 27.2791 18.0989 27.2635 17.6621Z" fill="url(#paint3_linear_1117_288)"/>
<path d="M7.47384 17.0669C7.87036 15.0263 6.53505 13.051 4.49135 12.6551C2.44764 12.2592 0.469452 13.5925 0.0729358 15.6332C-0.32358 17.6738 1.01173 19.6491 3.05544 20.045C5.09914 20.4409 7.07733 19.1076 7.47384 17.0669Z" fill="url(#paint4_linear_1117_288)"/>
<path d="M9.30816 8.5727L10.1827 8.00855C10.2511 7.965 10.3275 7.93537 10.4074 7.92137C10.4873 7.90736 10.5691 7.90926 10.6483 7.92695C10.7274 7.94464 10.8023 7.97778 10.8686 8.02445C10.9349 8.07113 10.9913 8.13042 11.0346 8.19893L15.4285 15.166C15.5168 15.3072 15.5677 15.4685 15.5762 15.6348C15.5848 15.801 15.5508 15.9667 15.4775 16.1162L11.1273 24.8962C10.972 25.2099 10.7477 25.4845 10.471 25.6994C10.1944 25.9143 9.87264 26.0639 9.52988 26.137C9.18712 26.2101 8.83225 26.2048 8.49184 26.1214C8.15143 26.0381 7.83431 25.879 7.56424 25.6559C7.15488 25.3173 6.87413 24.8488 6.76877 24.3285C6.66342 23.8083 6.73982 23.2676 6.98526 22.7968L10.8982 15.297L8.77116 13.1068C8.46688 12.7926 8.23641 12.4148 8.09645 12.0007C7.95649 11.5865 7.91055 11.1465 7.96196 10.7125C8.01336 10.2785 8.16083 9.86127 8.39366 9.49118C8.6265 9.12108 8.93888 8.80734 9.30816 8.5727Z" fill="url(#paint5_linear_1117_288)"/>
</g>
<defs>
<linearGradient id="paint0_linear_1117_288" x1="19.3902" y1="-3.94747" x2="30.6566" y2="21.4409" gradientUnits="userSpaceOnUse">
<stop stop-color="#00AEF1"/>
<stop offset="0.15" stop-color="#04A5E9"/>
<stop offset="1" stop-color="#1C76BD"/>
</linearGradient>
<linearGradient id="paint1_linear_1117_288" x1="16.0495" y1="-2.46428" x2="25.3442" y2="18.4787" gradientUnits="userSpaceOnUse">
<stop stop-color="#00AEF1"/>
<stop offset="1" stop-color="#1C76BD"/>
</linearGradient>
<linearGradient id="paint2_linear_1117_288" x1="26.3683" y1="22.5681" x2="18.1008" y2="36.3961" gradientUnits="userSpaceOnUse">
<stop stop-color="#74B198"/>
<stop offset="1" stop-color="#1F7973"/>
</linearGradient>
<linearGradient id="paint3_linear_1117_288" x1="24.3074" y1="14.5445" x2="15.324" y2="29.5733" gradientUnits="userSpaceOnUse">
<stop stop-color="#74B198"/>
<stop offset="1" stop-color="#1F7973"/>
</linearGradient>
<linearGradient id="paint4_linear_1117_288" x1="4.98735" y1="13.277" x2="-2.21931" y2="29.1326" gradientUnits="userSpaceOnUse">
<stop stop-color="#FCB23F"/>
<stop offset="1" stop-color="#F25C2C"/>
</linearGradient>
<linearGradient id="paint5_linear_1117_288" x1="13.5566" y1="9.23323" x2="6.30231" y2="25.1677" gradientUnits="userSpaceOnUse">
<stop stop-color="#FCB23F"/>
<stop offset="1" stop-color="#F25C2C"/>
</linearGradient>
<clipPath id="clip0_1117_288">
<rect width="30" height="30.3922" fill="white"/>
</clipPath>
</defs>
</svg>
